<?xml version="1.0" encoding="UTF-8"?>
<svg xmlns="http://www.w3.org/2000/svg" xmlns:xlink="http://www.w3.org/1999/xlink" viewBox="0 0 14.97 14.91">
  <defs>
    <style>
      .cls-1 {
        fill: url(#radial-gradient-3);
      }

      .cls-1, .cls-2, .cls-3, .cls-4, .cls-5 {
        mix-blend-mode: overlay;
      }

      .cls-1, .cls-2, .cls-4 {
        opacity: .63;
      }

      .cls-2 {
        fill: url(#radial-gradient-2);
      }

      .cls-6 {
        fill: url(#linear-gradient);
      }

      .cls-7 {
        isolation: isolate;
      }

      .cls-8 {
        fill: #3579a8;
      }

      .cls-9 {
        fill: #5f3482;
      }

      .cls-10 {
        fill: #fff3c2;
      }

      .cls-4 {
        fill: url(#radial-gradient);
      }

      .cls-5 {
        opacity: .57;
      }

      .cls-11 {
        fill: #fcfeff;
      }
    </style>
    <linearGradient id="linear-gradient" x1="-128.13" y1="-561.17" x2="-127.73" y2="-550.61" gradientTransform="translate(-219.28 531) rotate(36.32)" gradientUnits="userSpaceOnUse">
      <stop offset="0" stop-color="#fff36b"/>
      <stop offset="1" stop-color="#ffcb3d"/>
    </linearGradient>
    <radialGradient id="radial-gradient" cx="-126.59" cy="-562.34" fx="-126.59" fy="-562.34" r="9.92" gradientTransform="translate(-219.28 531) rotate(36.32)" gradientUnits="userSpaceOnUse">
      <stop offset=".39" stop-color="#ebf6fc"/>
      <stop offset="1" stop-color="#fff" stop-opacity="0"/>
    </radialGradient>
    <radialGradient id="radial-gradient-2" cx="16.05" cy="-145.21" fx="16.05" fy="-145.21" r="3.41" gradientTransform="translate(-135.22 -12.29) rotate(90)" xlink:href="#radial-gradient"/>
    <radialGradient id="radial-gradient-3" cx="16.05" cy="-145.21" fx="16.05" fy="-145.21" r="3.41" gradientTransform="translate(-135.18 -10.7) rotate(90)" xlink:href="#radial-gradient"/>
  </defs>
  <g class="cls-7">
    <g id="Layer_2" data-name="Layer 2">
      <g id="Layer_1-2" data-name="Layer 1">
        <g>
          <g>
            <path class="cls-8" d="M8,14.41c-.63,0-1.2-.3-1.55-.83l-1.2-1.77c-.16-.24-.43-.38-.72-.39h-2.14c-.72-.02-1.37-.43-1.68-1.08s-.24-1.41.21-1.98l1.31-1.69c.18-.23.23-.53.14-.81l-.65-2.04c-.18-.58-.08-1.19.27-1.68s.92-.78,1.52-.78c.22,0,.44.04.65.11l2.01.73c.1.03.2.05.3.05h0c.19,0,.36-.06.52-.17l1.74-1.25c.32-.23.7-.35,1.09-.35.51,0,1.01.21,1.36.58.35.37.54.85.52,1.37l-.07,2.14c0,.29.12.57.36.74l1.72,1.27c.58.43.86,1.14.74,1.85s-.64,1.28-1.33,1.48l-2.06.6c-.28.08-.5.29-.59.57l-.68,2.03c-.26.77-.98,1.29-1.79,1.29Z"/>
            <path class="cls-11" d="M9.81,1c.73,0,1.42.59,1.39,1.43l-.07,2.14c-.01.46.2.89.56,1.16l1.72,1.27c.92.68.67,2.12-.44,2.44l-2.06.6c-.44.13-.78.46-.93.89l-.68,2.03c-.2.62-.76.95-1.32.95-.43,0-.86-.2-1.14-.61l-1.2-1.77c-.26-.38-.68-.6-1.14-.61h-2.14c-1.15-.02-1.79-1.34-1.08-2.25l1.31-1.69c.28-.36.36-.83.23-1.27l-.65-2.04c-.3-.93.43-1.8,1.31-1.8.16,0,.32.03.48.08l2.01.73c.15.06.31.08.47.08.29,0,.57-.09.81-.26l1.74-1.25c.25-.18.53-.26.8-.26M9.81,0h0c-.5,0-.97.16-1.38.45l-1.74,1.25c-.07.05-.14.07-.22.07-.04,0-.09,0-.13-.02l-2.01-.73c-.27-.1-.54-.14-.82-.14-.75,0-1.47.37-1.92.98-.45.62-.58,1.39-.34,2.12l.65,2.04c.04.12.01.25-.06.35l-1.31,1.69c-.56.72-.66,1.68-.26,2.5s1.21,1.34,2.13,1.34h2.14c.13.02.24.08.31.18l1.2,1.77c.44.65,1.18,1.05,1.97,1.05,1.03,0,1.94-.66,2.27-1.63l.68-2.03c.04-.12.14-.21.26-.25l2.06-.6c.88-.25,1.52-.97,1.68-1.87.16-.9-.2-1.8-.93-2.34l-1.72-1.27c-.1-.07-.16-.2-.16-.32l.07-2.14c.02-.65-.21-1.27-.66-1.73-.45-.47-1.08-.73-1.72-.73h0Z"/>
          </g>
          <g>
            <path class="cls-6" d="M7.99,14.04c-.5,0-.96-.24-1.25-.66l-1.2-1.78c-.23-.34-.62-.55-1.04-.55h-2.13c-.58-.01-1.1-.34-1.36-.87-.25-.52-.19-1.12.17-1.58l1.32-1.69c.25-.33.33-.76.21-1.15l-.65-2.04c-.24-.77.15-1.57.89-1.86.18-.07.36-.11.55-.11.17,0,.35.03.52.09l2.01.72c.14.05.28.07.42.07.27,0,.52-.08.74-.24l1.74-1.24c.26-.19.56-.29.88-.29.41,0,.81.17,1.09.47.28.29.43.68.42,1.1l-.07,2.14c0,.42.18.81.51,1.05l1.72,1.27c.24.18.42.42.53.7.14.4.11.84-.09,1.21-.19.37-.51.63-.92.75l-2.05.6c-.41.12-.72.42-.85.81l-.68,2.03c-.21.63-.77,1.04-1.44,1.04Z"/>
            <path class="cls-9" d="M9.81,1c.73,0,1.41.6,1.39,1.43l-.07,2.14c0,.46.2.89.56,1.16l1.72,1.27c.24.17.4.4.48.64.25.71-.1,1.56-.92,1.8l-2.05.6c-.44.13-.79.46-.93.89l-.68,2.03c-.21.62-.76.95-1.32.95-.43,0-.86-.19-1.14-.6l-1.2-1.78c-.25-.37-.68-.6-1.14-.61h-2.13c-1.15-.02-1.79-1.34-1.09-2.24l1.32-1.69c.28-.36.37-.84.23-1.27l-.65-2.04c-.23-.75.18-1.46.81-1.71.16-.06.33-.1.5-.1.16,0,.32.03.48.08l2.01.72c.15.05.31.08.47.08.29,0,.57-.09.81-.26l1.74-1.24c.25-.18.53-.26.8-.26M9.81.75h0c-.34,0-.67.11-.95.31l-1.74,1.24c-.2.14-.43.21-.66.21-.13,0-.26-.02-.38-.07l-2.01-.72c-.18-.07-.37-.1-.56-.1-.2,0-.4.04-.6.11-.81.32-1.22,1.18-.96,2.02l.65,2.04c.11.35.04.74-.19,1.04l-1.32,1.69c-.38.49-.45,1.15-.18,1.71.27.57.84.93,1.47.93h2.14c.37.02.72.2.93.51l1.2,1.78c.31.45.8.71,1.35.71.72,0,1.33-.44,1.56-1.12l.68-2.03c.11-.35.4-.62.76-.73l2.05-.6c.44-.13.79-.42,1-.82.21-.4.24-.88.09-1.31-.11-.31-.31-.57-.57-.77l-1.72-1.27c-.29-.22-.47-.57-.46-.95l.07-2.13c.01-.45-.15-.87-.46-1.19-.31-.32-.74-.5-1.18-.5h0Z"/>
          </g>
          <path class="cls-5" d="M10.92,10.04c-.44.13-.79.46-.93.89l-.68,2.03c-.36,1.09-1.81,1.29-2.46.35l-1.2-1.78c-.25-.37-.68-.6-1.14-.61h-2.13c-1.15-.02-1.79-1.34-1.09-2.24l1.32-1.69c.28-.36.37-.84.23-1.27l-.65-2.04c-.23-.75.18-1.46.81-1.71.42,1.72,1.65,4.4,5.28,5.59,2.26.74,4.16.56,5.61.07.25.71-.1,1.56-.92,1.8l-2.05.6Z"/>
          <g class="cls-3">
            <path class="cls-10" d="M9.81,1v.25c.31,0,.61.13.82.35.21.22.32.51.31.82l-.07,2.14c-.02.54.23,1.05.67,1.37l1.72,1.27c.35.26.52.68.44,1.11-.08.43-.38.76-.8.89l-2.06.6c-.52.15-.93.54-1.1,1.06l-.68,2.03c-.16.47-.58.77-1.08.77-.38,0-.72-.18-.93-.5l-1.2-1.77c-.3-.45-.8-.71-1.34-.72h-2.14c-.44-.02-.82-.26-1.01-.65-.19-.4-.15-.84.12-1.19l1.31-1.69c.33-.43.43-.99.27-1.5l-.65-2.04c-.11-.35-.05-.71.16-1,.22-.29.56-.47.91-.47.13,0,.26.02.39.07l2.01.73c.18.06.37.1.56.1.34,0,.67-.11.95-.31l1.74-1.25c.2-.14.42-.21.65-.21v-.25M9.81,1c-.27,0-.55.08-.8.26l-1.74,1.25c-.24.17-.52.26-.81.26-.16,0-.32-.03-.47-.08l-2.01-.73c-.16-.06-.32-.08-.48-.08-.89,0-1.61.87-1.31,1.8l.65,2.04c.14.43.05.91-.23,1.27l-1.31,1.69c-.7.91-.06,2.22,1.08,2.23h2.14c.46.02.88.24,1.14.62l1.2,1.77c.28.41.71.61,1.14.61.56,0,1.11-.33,1.32-.95l.68-2.03c.14-.43.49-.77.93-.89l2.06-.6c1.1-.32,1.36-1.76.44-2.44l-1.72-1.27c-.37-.27-.58-.7-.56-1.16l.07-2.14c.03-.84-.65-1.43-1.39-1.43h0Z"/>
          </g>
          <path class="cls-4" d="M10.13,9.56c-.25.07-.45.27-.54.52l-.62,1.87c-.3.91-1.52,1.07-2.05.29l-1-1.48c-.21-.31-.57-.5-.95-.51h-1.78c-.96-.02-1.5-1.12-.91-1.87l1.22-1.56c.16-.21.21-.48.13-.73l-.6-1.89c-.19-.63.15-1.22.68-1.43.25-.1.53-.11.82,0l1.86.67c.24.09.52.05.73-.1l2.22-1.58c.53-.38,1.27.02,1.25.67l-.09,2.52c0,.38.17.74.47.97l1.44,1.06c.2.15.33.34.4.54.21.59-.09,1.3-.77,1.51l-1.9.55Z"/>
          <g>
            <ellipse class="cls-2" cx="10.05" cy="3.43" rx=".88" ry=".52" transform="translate(4.69 12.6) rotate(-78.54)"/>
            <ellipse class="cls-1" cx="9.1" cy="4.25" rx=".4" ry=".24" transform="translate(3.13 12.32) rotate(-78.54)"/>
          </g>
        </g>
      </g>
    </g>
  </g>
</svg>