<?xml version="1.0" encoding="UTF-8"?>
<svg xmlns="http://www.w3.org/2000/svg" xmlns:xlink="http://www.w3.org/1999/xlink" viewBox="0 0 27.86 52.38">
  <defs>
    <style>
      .cls-1 {
        fill: url(#linear-gradient-8);
      }

      .cls-2 {
        fill: url(#linear-gradient-5);
      }

      .cls-3 {
        fill: url(#linear-gradient-6);
      }

      .cls-4 {
        fill: url(#linear-gradient-9);
      }

      .cls-5 {
        fill: url(#linear-gradient-4);
      }

      .cls-6 {
        fill: url(#linear-gradient-2);
      }

      .cls-7 {
        fill: #3b2673;
      }

      .cls-8 {
        fill: url(#linear-gradient);
      }

      .cls-9, .cls-10 {
        fill: #08050f;
      }

      .cls-11 {
        isolation: isolate;
      }

      .cls-12 {
        fill: url(#linear-gradient-3);
      }

      .cls-12, .cls-13, .cls-10, .cls-14 {
        mix-blend-mode: overlay;
      }

      .cls-13 {
        fill: url(#linear-gradient-7);
      }

      .cls-10 {
        opacity: .37;
      }

      .cls-14 {
        fill: url(#linear-gradient-11);
      }

      .cls-15 {
        fill: #291d33;
      }

      .cls-16 {
        fill: url(#linear-gradient-10);
      }
    </style>
    <linearGradient id="linear-gradient" x1="22.56" y1="45.31" x2="19.96" y2="27.76" gradientUnits="userSpaceOnUse">
      <stop offset="0" stop-color="#937cd3"/>
      <stop offset=".96" stop-color="#3b2673"/>
    </linearGradient>
    <linearGradient id="linear-gradient-2" x1="-2049.49" y1="50.91" x2="-2050.37" y2="44.93" gradientTransform="translate(-2028.9) rotate(-180) scale(1 -1)" gradientUnits="userSpaceOnUse">
      <stop offset=".1" stop-color="#c48758"/>
      <stop offset=".29" stop-color="#ffe4a8"/>
      <stop offset=".33" stop-color="#fde0a5"/>
      <stop offset=".37" stop-color="#f6d79d"/>
      <stop offset=".4" stop-color="#ecc68e"/>
      <stop offset=".43" stop-color="#ddaf7b"/>
      <stop offset=".46" stop-color="#cb9261"/>
      <stop offset=".47" stop-color="#c48758"/>
      <stop offset=".61" stop-color="#ffe4a8"/>
      <stop offset=".67" stop-color="#fde0a5"/>
      <stop offset=".72" stop-color="#f6d79d"/>
      <stop offset=".76" stop-color="#ecc68e"/>
      <stop offset=".8" stop-color="#ddaf7b"/>
      <stop offset=".83" stop-color="#cb9261"/>
      <stop offset=".85" stop-color="#c48758"/>
      <stop offset="1" stop-color="#ffe4a8"/>
    </linearGradient>
    <linearGradient id="linear-gradient-3" x1="-2049.39" y1="53.9" x2="-2052.39" y2="17.53" gradientTransform="translate(-2028.9) rotate(-180) scale(1 -1)" gradientUnits="userSpaceOnUse">
      <stop offset="0" stop-color="#fff"/>
      <stop offset="1" stop-color="#c7c7c7" stop-opacity="0"/>
    </linearGradient>
    <linearGradient id="linear-gradient-4" x1="-2038.84" y1="29.58" x2="-2048.53" y2="16" gradientTransform="translate(-2028.9) rotate(-180) scale(1 -1)" xlink:href="#linear-gradient"/>
    <linearGradient id="linear-gradient-5" x1="-2046.05" y1="29.97" x2="-2047.41" y2="20.74" xlink:href="#linear-gradient-2"/>
    <linearGradient id="linear-gradient-6" x1="-2041.01" y1="24.01" x2="-2042.69" y2="12.6" xlink:href="#linear-gradient-2"/>
    <linearGradient id="linear-gradient-7" x1="-2041.15" y1="33.97" x2="-2043.8" y2="1.88" xlink:href="#linear-gradient-3"/>
    <linearGradient id="linear-gradient-8" x1="-2032.09" y1="-2.68" x2="-2042.2" y2="11.26" gradientTransform="translate(-2028.9) rotate(-180) scale(1 -1)" xlink:href="#linear-gradient"/>
    <linearGradient id="linear-gradient-9" x1="-2039.77" y1="6.17" x2="-2040.11" y2="3.89" xlink:href="#linear-gradient-2"/>
    <linearGradient id="linear-gradient-10" x1="-2039.27" y1="13.27" x2="-2040.06" y2="7.88" xlink:href="#linear-gradient-2"/>
    <linearGradient id="linear-gradient-11" x1="-2027.89" y1="9" x2="-2052.43" y2="3.6" xlink:href="#linear-gradient-3"/>
  </defs>
  <g class="cls-11">
    <g id="Layer_2" data-name="Layer 2">
      <g id="Layer_1-2" data-name="Layer 1">
        <g>
          <g>
            <g>
              <path class="cls-8" d="M14.8,52.14c-.11,0-.26-.04-.4-.2-.12-.14-.27-.32.6-4.33,1.4-6.49,4.62-18.98,6.42-25.85l.03-.11c.15-.58.29-1.12.42-1.62l.76-2.92c.01-.05.04-.1.09-.13l4.02-3.08s.09-.05.15-.05c.04,0,.07,0,.1.02.08.04.14.12.14.21,0,0,.07,2.41.15,5.92.1,3.8.21,8.9.28,13.6.06,3.75.08,6.75.07,8.92-.02,3.97-.16,4.11-.27,4.22-.11.11-.22.13-.29.13-.25,0-.44-.22-.71-.52-.45-.5-1.12-1.25-2.28-1.25-.81,0-1.76.37-2.83,1.08-2.46,1.67-3.94,3.44-4.93,4.62-.71.85-1.1,1.32-1.5,1.32Z"/>
              <path class="cls-9" d="M26.88,14.1s.07,2.41.15,5.92c.1,3.8.21,8.89.28,13.6.05,3.38.08,6.55.07,8.92-.01,2.37-.07,3.92-.2,4.05-.04.04-.08.06-.12.06-.43,0-1.12-1.76-2.99-1.76-.77,0-1.73.29-2.96,1.13-4.09,2.77-5.56,5.9-6.29,5.9-.08,0-.15-.04-.22-.12-.14-.17.13-1.74.65-4.12,1.41-6.5,4.64-19.05,6.42-25.85.16-.63.31-1.2.45-1.72.47-1.82.76-2.92.76-2.92l4.02-3.08M26.88,13.61c-.1,0-.21.03-.29.1l-4.02,3.08c-.09.07-.15.16-.17.26l-.76,2.92c-.11.42-.23.87-.36,1.36l-.09.36c-1.8,6.88-5.02,19.39-6.42,25.86-.89,4.12-.74,4.3-.55,4.53.16.19.37.29.59.29.52,0,.91-.47,1.69-1.41.98-1.17,2.45-2.93,4.88-4.58,1.02-.69,1.93-1.04,2.69-1.04,1.05,0,1.66.67,2.1,1.17.3.33.54.6.89.6.12,0,.3-.03.47-.2.18-.18.32-.32.34-4.39.01-2.16,0-5.16-.07-8.93-.07-4.18-.17-9.13-.28-13.6-.08-3.51-.15-5.92-.15-5.92,0-.18-.11-.35-.28-.42-.07-.03-.14-.05-.21-.05h0Z"/>
            </g>
            <path class="cls-10" d="M27.31,33.62c-1.08-3.83-2.27-7.82-2.68-8.28-.81-.92-1.7,11.84-3.66,10.75-1.96-1.08,3.35-13.43,1.1-14.3-.13-.05-.27-.04-.42.04.16-.63.31-1.2.45-1.72.47-1.82.76-2.92.76-2.92l4.02-3.08s.07,2.41.15,5.92c.1,3.8.21,8.89.28,13.6Z"/>
            <g>
              <path class="cls-6" d="M14.81,51.99c-.11,0-.21-.05-.29-.15-.07-.09-.22-.27.63-4.2,2.08-2.83,5.05-6.24,7.44-6.66.31-.05.62-.08.93-.08,1.71,0,3.08.85,3.92,1.57,0,3.98-.13,4.12-.19,4.18-.06.06-.12.08-.19.08-.18,0-.35-.19-.6-.47-.46-.52-1.17-1.3-2.39-1.3-.84,0-1.82.37-2.91,1.11-2.47,1.68-3.97,3.47-4.96,4.65-.66.79-1.06,1.26-1.39,1.26h0Z"/>
              <path class="cls-15" d="M23.51,40.99c1.62,0,2.95.77,3.86,1.54-.01,2.37-.07,3.92-.2,4.05-.04.04-.08.06-.12.06-.43,0-1.11-1.76-2.99-1.76-.77,0-1.73.3-2.96,1.13-4.09,2.77-5.56,5.9-6.29,5.9-.08,0-.15-.04-.22-.12-.14-.17.13-1.74.65-4.12,1.86-2.52,4.93-6.17,7.36-6.59.31-.06.62-.08.91-.08M23.51,40.81c-.31,0-.63.03-.94.08-2.42.42-5.4,3.86-7.48,6.66-.02.02-.03.05-.03.07-.86,3.97-.71,4.15-.61,4.28.12.15.26.18.36.18.37,0,.76-.46,1.46-1.3.99-1.18,2.48-2.96,4.94-4.63,1.07-.73,2.04-1.09,2.86-1.09,1.19,0,1.87.76,2.32,1.27.26.29.45.5.67.5.07,0,.16-.02.25-.11.1-.1.23-.23.25-4.18,0-.05-.02-.11-.07-.14-.86-.72-2.25-1.59-3.98-1.59h0Z"/>
            </g>
            <path class="cls-12" d="M14.59,51.78c.66.8,1.98-2.71,6.51-5.78,4.54-3.07,5.49,1.17,6.07.58.43-.42.08-17.3-.14-26.56l-.94.79s.34,23.58.05,23.73c-.3.15-1.63-3.31-4.49-.39-2.87,2.92-5.78,6.28-5.93,5.78-.15-.49,6.67-29.36,6.67-29.36,0,0-.1-.18-.28-.47-2.15,8.22-8.05,31.03-7.51,31.69Z"/>
          </g>
          <g>
            <g>
              <path class="cls-5" d="M16.02,33.16c-.61,0-1.15-.16-1.61-.47-.44-.31-.79-.76-1.06-1.35-.2-.47-.3-.96-.33-1.24-.12-.05-.33-.12-.53-.19-1.23-.42-3.79-1.3-5.78-2.89-.31-.24-.61-.51-.9-.8-2.73-2.85-1.44-4.77-1.39-4.85l.12-.14,15.17-15.28s.02-.03.03-.04l.76-.76.93-.95s.11-.08.18-.08c.03,0,.05,0,.08.01.09.03.16.11.17.21,0,.05.5,4.77.61,10.25.03,1.33.04,2.63.01,3.86-.13,7.93-1.28,12.55-3.41,13.74-1.16.64-2.19.97-3.06.97h0Z"/>
              <path class="cls-9" d="M21.62,4.38s.49,4.69.6,10.23c.03,1.26.04,2.55.01,3.85-.1,6.1-.85,12.17-3.28,13.52-1.22.68-2.18.94-2.94.94-.61,0-1.09-.17-1.46-.43-.47-.33-.77-.8-.97-1.24-.27-.64-.32-1.23-.31-1.28,0-.15-3.74-1.01-6.4-3.13-.31-.24-.6-.5-.88-.78h0c-2.61-2.73-1.35-4.53-1.35-4.53l.1-.12,15.18-15.3h0s.76-.77.76-.77l.36-.37.57-.59M21.62,3.88c-.13,0-.26.05-.36.15l-.57.59-.36.37-.75.75s-.03.04-.05.06l-15.14,15.26-.12.14s-.02.03-.03.04c-.06.09-1.46,2.17,1.4,5.16.31.32.62.6.94.84,2.02,1.61,4.61,2.5,5.85,2.92.13.05.27.09.38.13.05.34.17.78.32,1.15.29.64.67,1.12,1.14,1.46.5.35,1.09.52,1.75.52.91,0,1.98-.34,3.18-1,2.24-1.25,3.4-5.81,3.54-13.95.02-1.24.02-2.54-.01-3.87-.11-5.49-.6-10.22-.61-10.27-.02-.19-.15-.36-.33-.42-.05-.02-.11-.03-.16-.03h0Z"/>
            </g>
            <g>
              <path class="cls-2" d="M14.55,32.58s-.04,0-.05-.02c-.41-.29-.75-.72-1-1.28-.01-.02-.01-.05,0-.08,0-.02.03-.04.05-.05,4.66-1.56,7.55-12.11,8.58-16.57,0-.04.05-.07.09-.07,0,0,0,0,0,0,.05,0,.08.04.08.09.03,1.33.04,2.63.01,3.85-.57,2.4-1.22,4.43-1.94,6.05-2.3,5.18-4.41,7.24-5.78,8.05-.01,0-.03.01-.05.01Z"/>
              <path class="cls-15" d="M22.22,14.61c.03,1.26.04,2.55.01,3.85-.53,2.22-1.17,4.3-1.93,6.02-2.3,5.17-4.4,7.21-5.75,8.01-.47-.33-.77-.8-.97-1.24,3.93-1.32,6.91-9.12,8.64-16.63M22.22,14.42c-.08,0-.16.06-.18.14-1.02,4.45-3.9,14.95-8.52,16.5-.05.02-.09.05-.11.1-.02.05-.02.1,0,.15.26.57.61,1.02,1.03,1.32.03.02.07.03.11.03.03,0,.07,0,.09-.03,1.38-.82,3.51-2.89,5.82-8.1.72-1.62,1.38-3.66,1.95-6.05.03-1.28.02-2.58,0-3.89,0-.09-.07-.17-.17-.18,0,0-.01,0-.02,0h0Z"/>
            </g>
            <g>
              <path class="cls-3" d="M6.87,26.93s-.04,0-.06-.02c-.31-.23-.6-.5-.89-.79-.02-.02-.03-.06-.02-.09s.03-.06.07-.06c2.03-.55,4.08-2.24,6.1-5.03,5.07-7.02,7.66-14.54,7.76-14.86l.78-.8s.04-.03.07-.03c.02,0,.04,0,.06.02.04.03.04.08.02.12-4.95,15.95-10.8,20.33-13.85,21.53-.01,0-.02,0-.03,0Z"/>
              <path class="cls-15" d="M20.68,5.34h0M20.68,5.34s-.02.05-.03.08c-4.9,15.77-10.67,20.2-13.78,21.42-.31-.24-.6-.5-.88-.78,1.61-.43,3.75-1.74,6.15-5.07,5.03-6.97,7.62-14.43,7.78-14.88h0s.76-.77.76-.77M20.69,5.15h0c-.05,0-.1.02-.13.05l-.76.76s-.05.06-.05.1c-.18.54-2.74,7.88-7.74,14.81-2,2.77-4.04,4.46-6.05,5-.06.02-.11.07-.13.13-.02.06,0,.13.05.18.29.3.59.56.9.8.03.02.07.04.11.04.02,0,.05,0,.07-.01,3.06-1.2,8.94-5.6,13.89-21.53.01-.02.02-.05.03-.07,0-.02.01-.04.01-.06,0-.1-.08-.18-.18-.18h0ZM20.68,5.52h0,0Z"/>
            </g>
            <path class="cls-13" d="M5.99,26.04c2.61,2.7,7.29,3.75,7.29,3.92-.05.15.45,4.92,5.68,2.01,5.23-2.92,2.67-27.59,2.67-27.59l-.58.59c.18,2.66.91,14.57,0,19.44-1.03,5.5-4.19,7.72-5.79,7.05-1.61-.66-.64-3.23-.64-3.23,0,0-3.59.59-6.57-1.35-2.98-1.93-2.59-4.99-2.59-4.99l-.71-.48-.11.11s-1.26,1.81,1.35,4.52Z"/>
            <g>
              <path class="cls-9" d="M4.82,23.72c-.42,0-.78-.16-1.07-.47-.47-.51-.68-1.15-.62-1.92.33-4.14,8.64-10.69,8.99-10.96l7.1-4.88s.09-.04.14-.04c.06,0,.12.02.17.07.09.08.1.21.05.31-.43.73-10.53,17.9-14.75,17.9h0Z"/>
              <path class="cls-7" d="M19.36,5.69h0M19.36,5.69S8.95,23.47,4.82,23.47c-.34,0-.64-.12-.89-.39-3.22-3.47,8.34-12.51,8.34-12.51l7.09-4.87M19.36,5.19s-.02,0-.04,0h0s0,0,0,0c-.09,0-.18.04-.25.09l-7.08,4.87c-.38.3-8.77,6.91-9.11,11.16-.07.83.16,1.54.69,2.11.33.36.77.55,1.26.55,4.27,0,13.78-16,14.95-17.99.06-.08.09-.18.09-.29,0-.28-.22-.5-.5-.5h0ZM19.36,6.19h0,0Z"/>
            </g>
          </g>
          <g>
            <g>
              <path class="cls-1" d="M3.58,15.72c-.58,0-1.01-.16-1.29-.46-.43-.48-.74-1-.95-1.55-.12-.35-.2-.7-.24-1.07-.12-1.06.08-2.09.25-3.01.18-.94.34-1.75.09-2.27-.26-.56-.53-1.4-.75-2.3-.09-.35-.17-.71-.24-1.07C.12,2.15.2,1.08.7.8h.02c.18-.11.42-.16.74-.16,1.13,0,2.88.61,2.96.64.53.04,14.41,1.4,16.98,2.27.1.03.19.07.25.1.03.01.13.08.15.1.05.02.11.12.13.23.03.18-.04.39-.24.66-.16.24-.43.54-.86.96-.59.56-1.35,1.22-2.22,1.9-4.31,3.42-11.82,8.23-15.03,8.23h0Z"/>
              <path class="cls-9" d="M1.46.89c1.1,0,2.87.62,2.87.62,0,0,14.41,1.41,16.98,2.27.09.03.16.06.22.09.03.01.07.04.08.05.13.08.07.28-.13.56-.17.25-.46.56-.83.93-.56.54-1.31,1.18-2.2,1.88-4.32,3.42-11.78,8.17-14.87,8.17-.49,0-.87-.12-1.11-.38-.43-.48-.71-.97-.9-1.47-.12-.34-.19-.67-.23-1.01-.24-2.12.86-4.22.32-5.36-.25-.54-.52-1.37-.74-2.25-.09-.35-.17-.71-.24-1.06-.26-1.4-.31-2.69.12-2.92,0,0,0,0,.01,0,.15-.08.37-.12.63-.12M1.46.39c-.36,0-.64.06-.86.17,0,0,0,0,0,0,0,0-.02,0-.02.01-.25.14-.91.5-.37,3.45.07.35.15.72.24,1.09.22.91.5,1.77.77,2.34.21.45.05,1.26-.11,2.12-.18.93-.38,1.99-.26,3.09.04.38.12.75.25,1.12.22.59.55,1.14,1,1.64.33.37.83.55,1.48.55,3.27,0,10.84-4.84,15.18-8.28.87-.68,1.64-1.34,2.24-1.91.45-.44.72-.75.9-1.01.23-.31.32-.58.27-.83-.03-.16-.12-.3-.25-.4-.05-.04-.1-.07-.17-.1-.08-.04-.17-.08-.29-.11-2.53-.86-15.89-2.18-17.03-2.29-.33-.11-1.91-.63-2.98-.63h0Z"/>
            </g>
            <g>
              <path class="cls-4" d="M7.6,6.17c-2.55,0-4.8-.37-6.69-1.09-.15-.41-.23-.77-.29-1.13,0-.03,0-.07.03-.09.02-.01.04-.02.06-.02.01,0,.03,0,.04,0,1.25.57,3.07.95,5.41,1.13.61.05,1.28.07,2.02.07,4.1,0,9.41-.74,13.14-1.36.14.04.21.07.28.1,0,0,.1.06.11.07.04.02.08.08.09.14.02.13-.05.31-.21.53-3.46.67-8.48,1.46-13.12,1.61-.29,0-.57.01-.85.01Z"/>
              <path class="cls-15" d="M21.31,3.79c.09.03.16.06.22.09.03.01.07.04.08.05.13.08.07.28-.13.56-3.49.65-8.46,1.43-13.04,1.57-.29,0-.57.01-.84.01-2.91,0-5.09-.48-6.66-1.08-.09-.35-.17-.71-.24-1.06,1.04.48,2.73.93,5.44,1.14.63.05,1.31.07,2.03.07,4.1,0,9.38-.73,13.15-1.36M21.31,3.61s-.02,0-.03,0c-3.73.62-9.03,1.36-13.12,1.36-.73,0-1.41-.02-2.01-.07-2.32-.18-4.13-.55-5.37-1.12-.02-.01-.05-.02-.08-.02-.04,0-.08.01-.11.04-.05.04-.08.11-.07.18.06.35.14.71.24,1.07.01.06.06.11.11.13,1.91.72,4.17,1.09,6.73,1.09.28,0,.56,0,.85-.01,4.64-.15,9.67-.94,13.07-1.58.05,0,.09-.03.11-.07.18-.25.26-.45.23-.6-.02-.09-.07-.17-.15-.22,0-.01-.07-.05-.1-.06-.06-.03-.15-.07-.24-.1-.02,0-.04,0-.06,0h0Z"/>
            </g>
            <g>
              <path class="cls-16" d="M2.35,13.75c-.27,0-.53-.01-.78-.04-.2-.4-.27-.74-.31-1.09,0-.03,0-.06.03-.08.02-.02.04-.03.07-.03,0,0,0,0,0,0,.34.04.72.06,1.13.06.37,0,.77-.02,1.2-.06,2.62-.26,11.73-4.62,16.93-7.19.01,0,.03,0,.04,0,.03,0,.06.01.08.04.03.04.02.09-.01.12-.58.56-1.34,1.21-2.21,1.89-4.92,2.38-11.32,5.36-13.94,6.08-.74.2-1.48.3-2.22.3Z"/>
              <path class="cls-15" d="M20.65,5.42h0M20.65,5.42c-.56.54-1.31,1.18-2.2,1.88-5.04,2.44-11.34,5.36-13.91,6.06-.77.21-1.5.3-2.19.3-.27,0-.52-.01-.77-.04-.12-.34-.19-.67-.23-1.01.35.04.72.06,1.14.06.38,0,.78-.02,1.21-.06,2.57-.26,11.41-4.45,16.96-7.2M20.65,5.23s-.02,0-.03,0c0,0,0,0,0,0,0,0,0,0,0,0-.02,0-.04,0-.06.02-5.19,2.57-14.29,6.92-16.89,7.18-.41.04-.81.06-1.19.06s-.76-.02-1.12-.06c0,0-.01,0-.02,0-.05,0-.1.02-.13.05-.04.04-.06.09-.05.15.04.36.12.7.24,1.05.02.07.08.12.16.12.26.03.53.04.79.04.74,0,1.5-.1,2.24-.3,2.63-.72,9.03-3.7,13.94-6.07.89-.69,1.65-1.34,2.24-1.91.04-.03.07-.09.07-.14,0-.1-.08-.18-.18-.18h0ZM20.65,5.6h0,0Z"/>
            </g>
            <path class="cls-14" d="M2.48,15.09c2.51,2.76,20.45-10.31,19.14-11.16-.02-.01-.05-.03-.09-.05-1.22,1.15-5.84,5.31-11.33,7.95-6.42,3.08-7.75,2.29-8.11.35-.37-1.93.95-4.39.95-4.39,0,0-1.53-1.24-1.7-3.72-.17-2.48,1.17-2.65,1.17-2.65l-1.69-.41s0,0-.01,0c-.81.45.1,4.62.85,6.23S-.04,12.32,2.48,15.09Z"/>
            <g>
              <path class="cls-9" d="M18.73,4.02C13.54,4.02,1.84,3.41.89,1.59c-.12-.23-.1-.48.07-.71.3-.42,1.06-.62,2.38-.62,5.19,0,17.18,3.11,17.69,3.24.12.03.2.15.19.27-.01.12-.11.22-.24.22-.65.03-1.41.04-2.24.04h0Z"/>
              <path class="cls-7" d="M3.34.5c5.22,0,17.63,3.23,17.63,3.23-.64.03-1.4.04-2.23.04C11.9,3.77-.13,2.85,1.17,1.02c.26-.37,1.05-.52,2.17-.52M3.34,0C1.91,0,1.11.22.76.73c-.22.31-.25.66-.09.97,1.27,2.46,17.89,2.57,18.06,2.57.85,0,1.61-.01,2.25-.04.25-.01.45-.2.48-.45.03-.25-.13-.47-.37-.54-.51-.13-12.53-3.25-17.75-3.25h0Z"/>
            </g>
          </g>
        </g>
      </g>
    </g>
  </g>
</svg>