<?xml version="1.0" encoding="UTF-8"?>
<svg xmlns="http://www.w3.org/2000/svg" xmlns:xlink="http://www.w3.org/1999/xlink" viewBox="0 0 122.83 66.21">
  <defs>
    <style>
      .cls-1 {
        fill: url(#linear-gradient-6);
      }

      .cls-2 {
        fill: url(#linear-gradient-3);
      }

      .cls-3 {
        fill: url(#linear-gradient);
      }

      .cls-4 {
        isolation: isolate;
      }

      .cls-5 {
        fill: url(#linear-gradient-8);
      }

      .cls-5, .cls-6, .cls-7, .cls-8, .cls-9, .cls-10 {
        mix-blend-mode: overlay;
      }

      .cls-6 {
        fill: url(#linear-gradient-2);
      }

      .cls-7 {
        fill: url(#linear-gradient-4);
      }

      .cls-8 {
        fill: url(#linear-gradient-5);
      }

      .cls-9 {
        fill: url(#linear-gradient-7);
      }

      .cls-11 {
        fill: #fff;
      }

      .cls-10 {
        fill: #08050f;
        opacity: .3;
      }

      .cls-12 {
        fill: #291d33;
      }
    </style>
    <linearGradient id="linear-gradient" x1="-7.54" y1="-230.07" x2="15.07" y2="-290.46" gradientTransform="translate(-9.98 300.06) rotate(14.66)" gradientUnits="userSpaceOnUse">
      <stop offset="0" stop-color="#a8c8e6"/>
      <stop offset=".32" stop-color="#8c8fff"/>
      <stop offset=".68" stop-color="#715dcb"/>
      <stop offset=".74" stop-color="#5b4ea7"/>
      <stop offset=".81" stop-color="#494188"/>
      <stop offset=".88" stop-color="#3b3872"/>
      <stop offset=".94" stop-color="#333265"/>
      <stop offset="1" stop-color="#313161"/>
    </linearGradient>
    <linearGradient id="linear-gradient-2" x1="-26.02" y1="-254.3" x2="-13.17" y2="-270.13" gradientTransform="translate(-9.98 300.06) rotate(14.66)" gradientUnits="userSpaceOnUse">
      <stop offset="0" stop-color="#d5c9ff"/>
      <stop offset=".13" stop-color="#d4c8fe" stop-opacity=".98"/>
      <stop offset=".25" stop-color="#d4c8fb" stop-opacity=".94"/>
      <stop offset=".38" stop-color="#d3c8f7" stop-opacity=".86"/>
      <stop offset=".5" stop-color="#d1c8f0" stop-opacity=".75"/>
      <stop offset=".63" stop-color="#cfc8e9" stop-opacity=".61"/>
      <stop offset=".75" stop-color="#cdc7df" stop-opacity=".43"/>
      <stop offset=".88" stop-color="#cac7d3" stop-opacity=".23"/>
      <stop offset="1" stop-color="#c7c7c7" stop-opacity="0"/>
    </linearGradient>
    <linearGradient id="linear-gradient-3" x1="-5.19" y1="-228.84" x2="17.47" y2="-289.37" xlink:href="#linear-gradient"/>
    <linearGradient id="linear-gradient-4" x1="6.25" y1="-271.33" x2="30.12" y2="-294.94" xlink:href="#linear-gradient-2"/>
    <linearGradient id="linear-gradient-5" x1="-15.35" y1="-285.17" x2="-25.42" y2="-280.77" gradientTransform="translate(-79.16 276.39) rotate(29.37)" xlink:href="#linear-gradient-2"/>
    <linearGradient id="linear-gradient-6" x1="-24.75" y1="-276.72" x2="-23.31" y2="-278.15" gradientTransform="translate(-9.98 300.06) rotate(14.66)" gradientUnits="userSpaceOnUse">
      <stop offset="0" stop-color="#fff"/>
      <stop offset=".13" stop-color="#fefefe" stop-opacity=".98"/>
      <stop offset=".25" stop-color="#fbfbfb" stop-opacity=".94"/>
      <stop offset=".38" stop-color="#f7f7f7" stop-opacity=".86"/>
      <stop offset=".5" stop-color="#f0f0f0" stop-opacity=".75"/>
      <stop offset=".63" stop-color="#e9e9e9" stop-opacity=".61"/>
      <stop offset=".75" stop-color="#dfdfdf" stop-opacity=".43"/>
      <stop offset=".88" stop-color="#d3d3d3" stop-opacity=".23"/>
      <stop offset="1" stop-color="#c7c7c7" stop-opacity="0"/>
    </linearGradient>
    <linearGradient id="linear-gradient-7" x1="-28.03" y1="-258.31" x2="-23.63" y2="-273.63" xlink:href="#linear-gradient-2"/>
    <linearGradient id="linear-gradient-8" x1="20.21" y1="-317.91" x2="14.85" y2="-291.1" xlink:href="#linear-gradient-2"/>
  </defs>
  <g class="cls-4">
    <g id="Layer_2" data-name="Layer 2">
      <g id="Layer_1-2" data-name="Layer 1">
        <g>
          <g>
            <g>
              <path class="cls-3" d="M6.3,65.63c-3.15,0-5.03-.6-5.57-1.79-.37-.81-.09-1.76.83-2.82.11-.13.23-.26.37-.4,1.18-1.18,3.1-2.5,5.72-3.93,10.59-5.79,21.96-17.91,22.07-18.04.03-.03.06-.06.09-.08.06-.04,5.78-3.99,14.7-7.57,3.43-1.39,6.94-2.56,10.42-3.48,5.23-1.38,11.53-2.09,18.72-2.09,11.3,0,22,1.76,27.59,3.51,6.82,2.12,9.02,9.68,9.72,14,.3,1.83.33,3.09.33,3.14,0,.19-.09.38-.25.49-.1.07-.21.1-.32.1-.08,0-.15-.01-.22-.04-.07-.03-6.89-2.86-10.31-3.24-.35-.04-.67-.06-.99-.06-1.14,0-2.13.22-3.09.43-.94.21-1.83.4-2.81.4-.6,0-1.17-.07-1.75-.23-.99-.27-1.6-.76-1.81-1.46-.11-.38-.09-.77,0-1.14-1.17.56-2.77,1.16-4.47,1.33-.12.01-.24.02-.35.02-.77,0-1.41-.29-1.85-.83-.42-.52-.6-1.22-.67-1.89-.94,1.3-2.33,2.77-3.85,2.89-.05,0-.1,0-.15,0-.49,0-.92-.2-1.26-.58-.68-.77-.9-2.25-.94-3.59-1.42,2.63-3.83,6.51-6.08,7.31-.25.09-.48.13-.69.13-.47,0-.86-.2-1.14-.57-.57-.77-.57-2.31-.37-3.83-1.7,2.84-4.26,6.41-6.58,6.94-.18.04-.36.06-.53.06-.55,0-1-.23-1.3-.65-.46-.64-.56-1.77-.32-3.37-2.58,4.7-6.16,10.14-9,10.49-.19.02-.37.03-.54.03-.95,0-1.72-.34-2.27-1.02-.42-.51-.67-1.18-.81-1.87-1.18,2.95-3.26,6.58-6.42,6.58h0c-.36,0-.73-.05-1.1-.15-.38-.1-.68-.35-.87-.73-.43-.87-.21-2.53.26-4.33-.66,1.03-1.22,1.85-1.66,2.47-4.04,5.67-8.11,7.68-10.37,7.68-.98,0-1.65-.4-1.8-1.06-.2-.94,1.64-4.64,3.28-7.69-3.88,3.88-10.54,9.44-17.44,10.25-1.54.18-2.94.27-4.16.27Z"/>
              <path class="cls-12" d="M73.65,26.01c10.88,0,21.58,1.66,27.42,3.48,6.52,2.03,8.64,9.33,9.33,13.54.3,1.82.33,3.06.33,3.06,0,0-6.92-2.89-10.47-3.28-.37-.04-.72-.06-1.05-.06-2.3,0-3.98.84-5.91.84-.51,0-1.04-.06-1.6-.21-2.9-.78-.63-3.35-.49-3.52-.25.16-3,1.93-6,2.22-.1.01-.2.02-.29.02-2.78,0-1.8-4.4-1.8-4.4,0,0-2.25,4.37-4.61,4.56-.03,0-.07,0-.1,0-2.24,0-1.52-6.23-1.52-6.23,0,0-3.81,8.29-6.96,9.41-.19.07-.35.1-.5.1-2.32,0-.11-7.58-.11-7.58,0,0-4.55,9.32-8.11,10.13-.15.03-.28.05-.4.05-2.65,0-.02-7.45.37-8.57-.68,1.42-7,14.53-11.04,15.03-.16.02-.32.03-.46.03-3.7,0-2.46-6.15-2.46-6.15,0,0-2.24,9.84-7.04,9.84-.31,0-.63-.04-.96-.13-2.07-.54,1.15-8.47,1.64-9.66-.39.7-2.28,4.14-4.52,7.29-4.05,5.69-7.97,7.44-9.91,7.44-.71,0-1.16-.24-1.24-.6-.28-1.31,5.31-11.05,5.63-11.59-.5.61-10.19,12.51-20.41,13.7-1.54.18-2.91.27-4.09.27-4.57,0-6.36-1.31-4.3-3.66.1-.12.22-.24.35-.37,1.08-1.08,2.9-2.36,5.58-3.82,10.79-5.9,22.22-18.15,22.22-18.15,0,0,5.62-3.91,14.59-7.51,3.09-1.25,6.57-2.46,10.35-3.46,5.6-1.48,12.12-2.07,18.58-2.07M73.65,24.86c-7.25,0-13.6.71-18.87,2.1-3.51.93-7.04,2.11-10.49,3.51-8.98,3.6-14.58,7.47-14.81,7.63-.07.05-.13.1-.18.16-.11.12-11.42,12.18-21.93,17.92-2.67,1.46-4.63,2.81-5.84,4.02-.15.16-.28.3-.4.43-1.35,1.55-1.25,2.72-.92,3.44.65,1.43,2.64,2.13,6.09,2.13,1.24,0,2.66-.09,4.22-.27,4.47-.52,9.32-2.97,14.41-7.29.29-.25.58-.5.86-.74-1.11,2.28-1.9,4.25-1.74,5.02.16.74.86,1.52,2.36,1.52,2.51,0,6.68-2.08,10.84-7.92.05-.07.09-.13.14-.2-.05.85.04,1.51.28,1.99.26.52.7.89,1.24,1.03.42.11.84.16,1.25.16,3,0,5.06-2.8,6.37-5.55.12.22.26.44.42.63.66.81,1.6,1.23,2.72,1.23.2,0,.4-.01.61-.04,1.39-.17,4.1-1.66,8.27-8.72.1.8.36,1.16.5,1.36.41.58,1.04.89,1.77.89.21,0,.43-.03.66-.08,2.02-.46,4.11-2.88,5.77-5.34.05.81.22,1.52.59,2.01.39.52.96.8,1.6.8.28,0,.58-.05.88-.16,1.98-.7,4.03-3.53,5.51-6.01.16.84.44,1.61.9,2.13.45.5,1.03.77,1.69.77.06,0,.13,0,.19,0,1.34-.11,2.55-1.07,3.5-2.16.12.34.29.66.52.95.38.48,1.09,1.05,2.3,1.05.13,0,.27,0,.41-.02,1.37-.13,2.69-.54,3.77-.99.02.13.04.26.08.4.19.62.73,1.45,2.21,1.85.63.17,1.25.25,1.9.25,1.05,0,2.01-.21,2.94-.42.93-.21,1.89-.42,2.97-.42.31,0,.62.02.93.05,3.35.37,10.09,3.17,10.16,3.2.14.06.29.09.44.09.23,0,.45-.07.65-.2.32-.22.51-.58.5-.97,0-.05-.03-1.35-.34-3.23-.72-4.45-3-12.24-10.12-14.45-5.63-1.76-16.4-3.54-27.76-3.54h0Z"/>
            </g>
            <path class="cls-10" d="M110.72,46.1s-6.92-2.89-10.47-3.28c-3.53-.4-5.57,1.37-8.56.57-2.9-.78-.63-3.35-.49-3.52-.25.16-3,1.93-6,2.22-3.14.32-2.09-4.38-2.09-4.38,0,0-2.25,4.37-4.61,4.56-2.36.19-1.62-6.22-1.62-6.22,0,0-3.81,8.29-6.96,9.41-3.12,1.1-.62-7.48-.62-7.48,0,0-4.55,9.32-8.11,10.13-3.38.77-.31-7.73,0-8.58-.48,1.01-6.95,14.59-11.07,15.1-4.26.53-2.93-6.12-2.93-6.12,0,0-2.53,11.14-8,9.71-2.14-.56,1.38-9.04,1.68-9.75-.24.44-2.21,4.06-4.57,7.38-5.55,7.79-10.85,8.19-11.14,6.83-.28-1.31,5.31-11.05,5.63-11.59-.5.61-10.19,12.51-20.41,13.7-7.79.91-11.26-.55-8.05-3.77.67,1.06,2.65,2.16,8.17,1.58,9.72-1.01,22.53-15.83,23.25-15.55.72.27-7.1,13.52-5.9,14.15,1.2.63,6.46-5.03,9.8-9.21,3.34-4.19,5.19-7.09,5.19-7.09,0,0-4.08,11.88-.93,10.62,3.15-1.28,5.09-10.07,6.12-9.75,1.02.31-.64,6.64,2.32,6.41,2.96-.23,11.04-14.77,12.19-16.06,1.15-1.3-1.66,8.75-.43,9.07s7.87-9.73,8.62-9.71c.74,0-2.57,7.6-.86,7.99,1.69.4,7.18-10.12,8.32-10.27,1.13-.15-.61,6,1.25,5.83,1.85-.18,5.62-3.85,5.62-3.85,0,0-.64,3.31,1.22,3.93,1.86.62,7.02-.9,7.02-.9,0,0-1.22,3.34,1.23,3.51,2.47.16,5.9-2.72,13.17.28.76.31,1.68.66,2.7,1.05.3,1.82.33,3.06.33,3.06Z"/>
            <path class="cls-6" d="M46.97,41.43s-5.76,6.2-9.36,6.18c-3.6-.01-3.07-1.55-3.07-1.55,0,0-2.28,2.88-4.78,2.22s-2.62-1.35-2.62-1.35c0,0-3.73,1.8-5.11,1.88-1.38.07-2.91,2.71-11.02,7.5-8.11,4.78-8.28,6.1-2.17,5.42,5.89-.65,10.86-3.07,11.24-3.26-.41.36-7.27,5.97-15.55,3.93-1.03-.25-1.87-.59-2.54-1.01.1-.12.22-.24.35-.37,1.08-1.08,2.9-2.36,5.58-3.82,10.79-5.9,22.22-18.15,22.22-18.15,0,0,5.62-3.91,14.59-7.51l2.25,9.89Z"/>
            <g>
              <path class="cls-2" d="M19.23,46.92c-.28,0-.56,0-.85-.02-3.06-.12-5.08-1.04-5.66-2.59-.35-.92-.32-2.44,1.8-4.45.27-.26.58-.53.92-.8,1.88-1.5,4.55-2.98,7.97-4.4,2.85-1.2,5.46-2.4,7.75-3.58,4.04-2.07,6.4-3.69,7.68-4.7-.59.05-1.17.07-1.71.07-1.09,0-2.05-.1-2.88-.29-2.53-.59-2.93-1.86-2.94-2.56-.03-2.47,4.34-5.1,11.7-7.02,7.07-1.83,13.34-5.29,18-8.1,1.66-1,3.22-1.98,4.68-2.89,4.65-2.92,8-5.02,10.28-5.02.12,0,.23,0,.34.02,5.15.54,5.48.87,11.76,11.82,2.2,3.83,6.18,8.15,11.84,12.84,6.44,5.34,12.8,9.27,12.87,9.31,8.31,4.71,9.43,6.65,9.48,7.8.07,1.53-1.85,1.98-2.76,2.17-.81.43-2.06,1-3.58,1.34-.88.19-1.75.29-2.61.29-1.04,0-2.07-.14-3.05-.43-4.42-1.26-5.39-3.99-5.6-5.25-.2.01-.43.03-.69.03-1.24,0-2.9-.26-3.74-1.51-.68-1.02-.53-2.29-.14-3.39-.42.05-.92.08-1.49.08-1.51,0-3.1-.23-4.71-.68-2.87-.8-3.91-1.84-4.26-2.61-.76.4-2.02.92-3.36.92-.79,0-1.52-.18-2.16-.54-.93-.52-1.52-1.21-1.76-2.04-.04-.14-.07-.28-.08-.41-1.06.92-2.62,2-4.14,2-.14,0-.27,0-.41-.03-.74-.1-1.33-.45-1.7-1.02-.26-.39-.39-.85-.44-1.3-1.02,1.28-2.59,2.88-4.4,3.47-.53.17-1.02.26-1.45.26-.66,0-1.2-.2-1.6-.61-.08-.08-.15-.17-.21-.26-.96,1.41-2.76,3.74-4.38,3.93-.14.02-.27.02-.39.02-.68,0-1.09-.25-1.32-.5-.83,1.56-2.18,3.62-3.7,4.13-.31.11-.62.16-.92.16-1.06,0-1.7-.66-2.07-1.28-1.25,1.76-4.08,5.34-6.52,5.34-.08,0-.16,0-.23-.01-.77-.07-1.37-.42-1.74-1.01-.44-.69-.5-1.61-.43-2.45-1.88,1.93-5.21,4.95-7.68,4.95-.14,0-.28,0-.41-.03-1.29-.18-2.09-.64-2.38-1.37-.05-.12-.08-.24-.1-.35-1.21.77-2.94,1.65-4.6,1.65-.34,0-.67-.04-.98-.11-1.04-.24-1.66-.67-1.85-1.29-1.72,1.03-4.71,2.29-8.97,2.29Z"/>
              <path class="cls-12" d="M75.97,1.15c.1,0,.19,0,.29.01,4.77.5,4.99.5,11.32,11.53,2.6,4.53,7.32,9.14,11.97,12.99,6.55,5.43,12.93,9.36,12.93,9.36,6.98,3.95,9.16,6.1,9.2,7.34.04.94-1.16,1.35-2.38,1.61-.8.43-2.02.99-3.51,1.32-.77.17-1.6.28-2.49.28s-1.89-.12-2.9-.41c-5.37-1.53-5.24-5.33-5.24-5.33,0,0-.51.09-1.2.09-1.06,0-2.56-.21-3.26-1.26-.77-1.16-.17-2.82.31-3.79-.44.1-1.27.23-2.42.23s-2.74-.15-4.55-.66c-4.4-1.23-4-2.92-3.99-2.98,0,0-1.82,1.26-3.79,1.26-.63,0-1.28-.13-1.88-.47-2.52-1.4-1.25-3.63-1.25-3.63,0,0-2.62,3.1-5.01,3.1-.11,0-.22,0-.33-.02-2.48-.33-1.46-3.82-1.46-3.82,0,0-2.36,4.02-5.33,4.99-.51.17-.93.24-1.27.24-1.68,0-1.64-1.62-1.64-1.62,0,0-2.62,4.45-4.62,4.68-.11.01-.22.02-.32.02-1.49,0-1.16-1.46-1.11-1.68-.18.41-2.05,4.65-4.09,5.34-.27.09-.51.13-.73.13-1.53,0-1.95-1.91-1.95-1.91,0,0-3.82,5.97-6.64,5.97-.06,0-.12,0-.18,0-2.83-.27-1.22-4.84-1.22-4.84,0,0-5.36,6.32-8.69,6.32-.11,0-.22,0-.33-.02-3.12-.43-1.71-2.39-1.56-2.59-.26.21-3.05,2.51-5.61,2.51-.29,0-.57-.03-.85-.09-2.3-.53-1.31-1.77-.83-2.23-.83.7-4.19,3.22-10.12,3.22-.27,0-.55,0-.83-.02-5.06-.2-7-2.7-3.49-6.05.26-.25.56-.51.88-.77,1.7-1.35,4.25-2.83,7.83-4.32,3.11-1.3,5.68-2.51,7.8-3.6,5.59-2.87,8.03-4.91,8.83-5.66.03-.02.05-.05.07-.06.02-.01.04-.04.06-.06.11-.11.16-.18.19-.2-.45.07-.89.12-1.3.16-.77.08-1.48.12-2.14.12-1.07,0-1.99-.1-2.74-.28-4.78-1.1-3.14-5.36,8.78-8.46,6.79-1.76,12.96-5.03,18.16-8.16,6.74-4.04,11.86-7.83,14.66-7.83M75.97,0h0c-2.44,0-5.86,2.14-10.59,5.11-1.48.93-3.01,1.89-4.66,2.88-4.64,2.79-10.86,6.22-17.85,8.03-7.75,2.02-12.17,4.78-12.13,7.58,0,.7.36,2.41,3.38,3.11.82.19,1.78.3,2.85.31-1.36.93-3.32,2.13-6.08,3.54-2.28,1.18-4.88,2.38-7.72,3.57-3.46,1.45-6.19,2.95-8.1,4.48-.38.31-.69.58-.96.84-2.34,2.23-2.34,3.99-1.93,5.07.67,1.78,2.87,2.83,6.18,2.96.3.01.59.02.87.02,3.98,0,6.9-1.08,8.74-2.08.38.49,1.04.85,1.95,1.06.35.08.72.12,1.11.12,1.54,0,3.1-.67,4.31-1.37.45.77,1.35,1.25,2.7,1.44.16.02.32.03.49.03,2.29,0,5.13-2.25,7.13-4.16.07.5.22.98.49,1.4.33.52.97,1.16,2.17,1.27.09,0,.19.01.29.01,2.43,0,5.05-2.97,6.53-4.95.49.51,1.17.89,2.06.89.36,0,.73-.06,1.1-.19,1.5-.5,2.8-2.26,3.71-3.83.29.14.66.23,1.13.23.14,0,.29,0,.45-.03,1.64-.19,3.3-2.07,4.4-3.59.37.28.93.54,1.73.54.49,0,1.04-.1,1.63-.29,1.55-.5,2.91-1.68,3.95-2.82.06.15.14.29.23.42.46.71,1.19,1.15,2.1,1.27.16.02.32.03.48.03,1.39,0,2.76-.76,3.83-1.57.27.62.81,1.36,1.88,1.95.73.41,1.55.61,2.44.61,1.2,0,2.33-.38,3.15-.75.59.82,1.83,1.73,4.32,2.43,1.66.47,3.29.7,4.86.7.25,0,.49,0,.71-.02-.26,1.19-.11,2.23.44,3.06.78,1.16,2.24,1.77,4.22,1.77.08,0,.16,0,.23,0,.4,1.52,1.7,4.01,5.9,5.2,1.04.3,2.12.45,3.21.45.9,0,1.82-.1,2.74-.31,1.54-.34,2.82-.91,3.66-1.36.96-.21,3.22-.8,3.13-2.75-.05-1.45-1.28-3.46-9.78-8.28-.03-.02-6.36-3.93-12.77-9.24-5.6-4.65-9.54-8.91-11.71-12.68C82.21,1.04,81.75.59,76.41.02c-.17-.02-.31-.02-.44-.02h0Z"/>
            </g>
            <path class="cls-10" d="M115.79,45.31c-1.56.35-3.41.44-5.38-.13-5.37-1.53-5.24-5.33-5.24-5.33,0,0-3.3.56-4.47-1.17-.77-1.16-.17-2.82.31-3.79-.91.2-3.43.57-6.97-.43-4.4-1.23-4-2.92-3.99-2.98,0,0-3.17,2.19-5.67.79-2.52-1.4-1.25-3.63-1.25-3.63,0,0-2.87,3.39-5.34,3.08-2.48-.33-1.46-3.82-1.46-3.82,0,0-2.36,4.02-5.33,4.99-2.96.97-2.91-1.38-2.91-1.38,0,0-2.62,4.45-4.62,4.68-1.86.22-1.49-1.42-1.43-1.66-.18.41-2.05,4.65-4.09,5.34-2.13.72-2.69-1.78-2.69-1.78,0,0-3.98,6.22-6.82,5.96s-1.22-4.84-1.22-4.84c0,0-5.73,6.76-9.02,6.3-3.12-.43-1.71-2.39-1.56-2.59-.29.23-3.71,3.05-6.46,2.41-2.3-.53-1.31-1.77-.83-2.23-.86.74-4.5,3.45-10.95,3.2-5.43-.21-7.27-3.09-2.61-6.82-.97,1.47-1.46,2.96-.48,3.9,2.57,2.47,9.4.22,13.07-1.38,3.67-1.59,6.35-3.76,6.35-3.76,0,0-3.6,3.85-1.77,4.25,1.77.37,7.39-3.69,7.75-3.94-.2.28-2.86,4.15-.31,4.43,2.65.3,8.84-8.38,8.84-8.38,0,0-1.72,6.72.29,6.8,1.99.09,7.67-8.15,7.67-8.15,0,0-.32,5.42,1.45,4.39,1.76-1.04,3.54-7.04,3.54-7.04,0,0,.67,2.9,2.5,2.11,1.84-.8,5.53-6.34,5.53-6.34,0,0-.71,4.73,1.48,4.12,2.11-.6,6.42-5.19,6.69-5.47-.14.33-1.84,4.4.2,4.33,2.12-.05,5.86-3.56,6.07-3.51s-2.09,4.12.38,4.53c2.46.43,6.58-1.52,6.58-1.52,0,0,.65,2.89,4.45,3.66,3.8.78,9.2,1.14,9.2,1.14,0,0-2.93,2.29-1.84,3.35,1.08,1.07,4.2,1.1,4.2,1.1,0,0,.08,4.97,5.26,6.59,1.02.32,2.01.5,2.92.59Z"/>
            <path class="cls-10" d="M91.79,23.64c-.34.09-3.23.76-4.87.25-1.75-.55-1.54-2.17-1.54-2.17,0,0-5.03,1.2-6.5.46-1.48-.74-1.12-2.45-1.12-2.45,0,0-2.45,2.61-4.26,1.83-1.82-.78-1.36-3.21-1.36-3.21,0,0-4.71,5.05-6.77,4.86-2.06-.19-1.39-3.26-1.39-3.26,0,0-3.53,4.26-6.64,5.03-3.11.77-2.6-2.66-2.6-2.66,0,0-3.67,5.12-15.63,7.96-2.79.67-5.38,1.07-7.69,1.31,5.59-2.87,8.03-4.91,8.83-5.66.6-.08,1.18-.17,1.73-.27,5.6-1.03,10.44-4.37,12.41-6.02,1.65-1.39,2.63-2.37,2.86-2.61-.33.45-2.43,3.54.51,3.92,3.13.39,6.75-4.71,6.75-4.71,0,0-.7,2.12,2.79,2.27,3.49.15,6.27-3.71,6.27-3.71,0,0-.37,2.59.91,3.55,1.28.96,4.11-.82,4.11-.82,0,0,.31,2.39,2.27,2.96,1.96.56,5.85-.5,5.85-.5,0,0-.86,2.97,1.48,3.39,2.12.39,3.4.28,3.6.26Z"/>
            <path class="cls-12" d="M38.29,26.24c5.56-1.17,11.2-2.84,15.56-6.63,1.44-1.21,2.82-2.55,3.98-4l.71.56c-.8.93-1.62,2-1.92,3.13-.14.57.02,1.06.57,1.27,2.82.73,5.87-3.05,7.56-4.97.15-.19.46-.02.39.2-.22.92,0,2.12,1.06,2.32,3.18.34,5.81-2.55,7.88-4.62.43-.49,1.23.14.85.67-.43.63-.83,1.4-.94,2.1-.32,1.64,1.49,1.95,2.74,1.48.72-.24,1.46-.66,2.07-1.11.28-.2.66-.14.86.14.1.14.13.3.11.45-.28,1.6.52,2.95,2.31,2.85,1.7.07,3.49-.17,5.1-.7.22-.07.46.05.53.27.04.12.02.24-.04.34-.71,1.13-.55,2.67.82,3.22,1.29.67,2.92.35,4.26.17-1.29.66-3.04.82-4.47.32-1.75-.57-2.17-2.62-1.33-4.14,0,0,.52.6.52.6-3.36,1.18-9.59,2.42-8.9-3.16,0,0,.98.59.98.59-.75.58-1.54,1-2.44,1.31-1.32.51-3.43.33-4.11-1.25-.57-1.49.27-2.96,1.06-4.13,0,0,.83.68.83.68-2.36,2.26-5.28,5.16-8.85,4.51-1.34-.3-1.72-1.9-1.33-3.04,0,0,.39.2.39.2-1.75,1.96-3.58,3.92-6.02,5.03-.62.25-1.36.39-2.07.15-.77-.18-1.22-1.14-1.03-1.88.29-1.42,1.07-2.52,1.87-3.61.15-.2.43-.24.63-.09.21.15.24.46.08.66-4.56,6.3-12.86,10.25-20.27,10.1h0Z"/>
          </g>
          <g>
            <path class="cls-11" d="M60.26,26.56c-1.27-.05-1.54.1-2.11,1.24.05-1.27-.1-1.54-1.24-2.11,1.27.05,1.54-.1,2.11-1.24-.05,1.27.1,1.54,1.24,2.11Z"/>
            <path class="cls-11" d="M54.15,34.65c-.86.33-.99.51-1.05,1.43-.33-.86-.51-.99-1.43-1.05.86-.33.99-.51,1.05-1.43.33.86.51.99,1.43,1.05Z"/>
            <path class="cls-11" d="M52.84,47.6c-.72.57-.8.78-.58,1.68-.57-.72-.78-.8-1.68-.58.72-.57.8-.78.58-1.68.57.72.78.8,1.68.58Z"/>
            <path class="cls-11" d="M72.97,6.29c-1.27-.05-1.54.1-2.11,1.24.05-1.27-.1-1.54-1.24-2.11,1.27.05,1.54-.1,2.11-1.24-.05,1.27.1,1.54,1.24,2.11Z"/>
            <path class="cls-11" d="M85.69,17.16c-.92-.04-1.12.07-1.54.9.04-.92-.07-1.12-.9-1.54.92.04,1.12-.07,1.54-.9-.04.92.07,1.12.9,1.54Z"/>
            <path class="cls-11" d="M34.24,36.67c-1.02-.04-1.23.08-1.7.99.04-1.02-.08-1.23-.99-1.7,1.02.04,1.23-.08,1.7-.99-.04,1.02.08,1.23.99,1.7Z"/>
            <g>
              <polygon class="cls-11" points="58.53 26.36 57.66 26.64 57.64 26.58 58.52 26.34 58.53 26.36"/>
              <polygon class="cls-11" points="56.09 27.15 54.52 27.64 54.47 27.49 56.05 27.03 56.09 27.15"/>
              <path class="cls-11" d="M52.94,28.14c-.52.17-1.05.33-1.58.48l-.05-.18c.52-.17,1.05-.33,1.58-.48l.06.18Z"/>
              <polygon class="cls-11" points="49.78 29.08 48.19 29.55 48.16 29.43 49.73 28.93 49.78 29.08"/>
              <polygon class="cls-11" points="46.61 30.01 45.73 30.26 45.75 30.22 46.12 31.05 46.04 31.09 45.69 30.25 45.68 30.21 45.71 30.2 46.58 29.93 46.61 30.01"/>
              <polygon class="cls-11" points="46.57 32.09 47.01 33.13 46.9 33.18 46.47 32.13 46.57 32.09"/>
              <polygon class="cls-11" points="47.47 34.16 47.83 35 47.88 35.1 47.76 35.12 46.85 35.21 46.84 35.02 47.75 34.95 47.67 35.06 47.33 34.22 47.47 34.16"/>
              <polygon class="cls-11" points="45.03 35.39 43.2 35.56 43.18 35.34 45.01 35.18 45.03 35.39"/>
              <rect class="cls-11" x="39.53" y="35.59" width="1.84" height=".22" transform="translate(-3.1 3.85) rotate(-5.25)"/>
              <polygon class="cls-11" points="37.71 36.04 35.88 36.19 35.86 36.06 37.69 35.87 37.71 36.04"/>
              <polygon class="cls-11" points="34.04 36.33 33.13 36.39 33.13 36.36 34.04 36.26 34.04 36.33"/>
            </g>
            <g>
              <path class="cls-11" d="M72.06,6.04c.57.22,1.13.44,1.69.67l-.05.11c-.56-.24-1.1-.51-1.65-.77v-.02Z"/>
              <path class="cls-11" d="M75.43,7.41c.56.24,1.13.46,1.68.71l-.08.17c-.56-.23-1.11-.48-1.67-.73l.07-.16Z"/>
              <polygon class="cls-11" points="78.78 8.87 79.82 9.33 79.89 9.36 79.84 9.42 79.38 9.92 79.32 9.87 79.76 9.35 79.77 9.43 78.72 9 78.78 8.87"/>
              <polygon class="cls-11" points="78.19 11.3 77.01 12.69 76.9 12.6 78.12 11.24 78.19 11.3"/>
              <polygon class="cls-11" points="75.83 14.08 75.45 14.53 75.39 14.36 76.59 14.66 76.53 14.88 75.34 14.56 75.17 14.52 75.29 14.39 75.68 13.95 75.83 14.08"/>
              <polygon class="cls-11" points="78.35 15.12 80.11 15.59 80.06 15.8 78.29 15.35 78.35 15.12"/>
              <polygon class="cls-11" points="81.87 16.08 83.62 16.58 83.6 16.65 81.83 16.23 81.87 16.08"/>
            </g>
            <path class="cls-11" d="M25.36,51.26c-.7.82-.74,1.08-.29,2.05-.82-.7-1.08-.74-2.05-.29.7-.82.74-1.08.29-2.05.82.7,1.08.74,2.05.29Z"/>
            <path class="cls-11" d="M39.28,48.51c-.51.59-.54.78-.21,1.5-.59-.51-.78-.54-1.5-.21.51-.59.54-.78.21-1.5.59.51.78.54,1.5.21Z"/>
            <g>
              <path class="cls-11" d="M24.71,51.74c.45-.26.89-.53,1.34-.77l.05.09c-.45.24-.92.47-1.38.7v-.02Z"/>
              <path class="cls-11" d="M27.4,50.21c.45-.25.9-.51,1.36-.74l.08.14c-.45.26-.91.49-1.36.73l-.07-.13Z"/>
              <polygon class="cls-11" points="30.13 48.75 30.98 48.3 31.04 48.27 31.05 48.34 31.15 48.91 31.07 48.92 30.96 48.35 31.03 48.39 30.18 48.86 30.13 48.75"/>
              <polygon class="cls-11" points="31.43 50.42 31.74 51.94 31.62 51.96 31.36 50.44 31.43 50.42"/>
              <polygon class="cls-11" points="32.05 53.45 32.14 53.94 32 53.89 32.83 53.26 32.94 53.4 32.11 54.03 31.99 54.12 31.97 53.98 31.88 53.48 32.05 53.45"/>
              <polygon class="cls-11" points="34.07 52.33 35.3 51.4 35.41 51.54 34.18 52.48 34.07 52.33"/>
              <polygon class="cls-11" points="36.55 50.49 37.8 49.58 37.84 49.64 36.63 50.59 36.55 50.49"/>
            </g>
            <g>
              <path class="cls-11" d="M52.85,35.12c.15.41.3.83.43,1.25l-.09.03c-.13-.42-.24-.85-.36-1.27h.02Z"/>
              <path class="cls-11" d="M53.69,37.62c.14.42.26.84.39,1.26l-.12.04c-.14-.42-.28-.83-.4-1.26l.13-.04Z"/>
              <path class="cls-11" d="M54.46,40.15c.11.37.21.74.34,1.11v.02s0,.01,0,.01l-.11.12-.04-.04.12-.11v.03c-.11-.37-.25-.73-.36-1.1l.07-.02Z"/>
              <polygon class="cls-11" points="53.76 42.36 52.85 43.31 52.75 43.21 53.69 42.29 53.76 42.36"/>
              <polygon class="cls-11" points="51.93 44.26 51 45.2 50.89 45.08 51.82 44.15 51.93 44.26"/>
              <polygon class="cls-11" points="51.02 46.28 51.4 47.55 51.35 47.57 50.91 46.32 51.02 46.28"/>
            </g>
          </g>
          <path class="cls-7" d="M112.48,35.04s-18.64-11.45-24.9-22.35c-6.33-11.03-6.55-11.03-11.32-11.53-4.76-.49-17.24,11.84-33.1,15.97-15.61,4.07-13.59,10.11-2.6,8.47-.03.02-.09.12-.24.26.98-.28,1.61-.52,1.72-.56-.38-.02-9.01-.26-7.4-2.96.87-1.46,2.55-1.85,5.81-2.78,0,.03,0,.07,0,.1.19.72,1.62.97,3.21.55,1.58-.42,2.71-1.34,2.52-2.06-.03-.13-.12-.24-.23-.34,2.15-.77,4.66-1.78,7.64-3.18,12.8-6.03,22.4-14.81,25.77-11.91,3.37,2.91,5.67,11.95,17.53,22.62,7.82,7.04,18.47,13.47,24.8,17.04-.05-1.24-2.23-3.38-9.2-7.34Z"/>
          <ellipse class="cls-8" cx="47.1" cy="20.33" rx="1.56" ry=".69" transform="translate(-3.62 12.63) rotate(-14.71)"/>
          <path class="cls-1" d="M39.26,25.76c-2.01.21-3.66.13-4.88-.16l4.88.16Z"/>
          <path class="cls-9" d="M45.61,39.16c-.43.52-4.11,4.89-5.56,3.79-1.46-1.12.11-4.04.25-4.32-.32.25-5.48,4.22-6.72,4.14-1.28-.07-2.1-.9.02-3.66,0,0-10.67,7.5-17.33,4.93-1.87-.72-2.05-2.12-1.36-3.77.26-.25.56-.51.88-.77,1.7-1.35,4.25-2.83,7.83-4.32,3.11-1.3,5.68-2.51,7.8-3.6,5.59-2.87,8.03-4.91,8.83-5.66.03-.02.05-.05.07-.06.02-.01.04-.04.06-.06l.8.02s-7.99,5.1-16.7,10.13c-8.7,5.02-11.32,7.42-3.53,7.25s15.05-6.57,15.05-6.57c0,0-3.3,3.9-1.64,4.41,1.61.49,6.81-3.38,7.13-3.61-.15.22-2.18,3.31-.59,4.18,1.53.86,4.32-2.03,4.71-2.45Z"/>
          <path class="cls-5" d="M99.55,25.68c-4.49,1.91-14.71.67-25.7-5.28-5.65-3.06-9.73-7.43-12.53-11.43,6.98-4.18,12.22-8.09,14.94-7.81,4.77.5,4.99.5,11.32,11.53,2.6,4.53,7.32,9.14,11.97,12.99Z"/>
        </g>
      </g>
    </g>
  </g>
</svg>