<?xml version="1.0" encoding="UTF-8"?>
<svg xmlns="http://www.w3.org/2000/svg" xmlns:xlink="http://www.w3.org/1999/xlink" viewBox="0 0 94.77 40.25">
  <defs>
    <style>
      .cls-1 {
        fill: url(#radial-gradient-7);
      }

      .cls-2 {
        fill: url(#radial-gradient-6);
      }

      .cls-3 {
        fill: url(#radial-gradient-5);
      }

      .cls-4 {
        fill: url(#radial-gradient-4);
      }

      .cls-5 {
        fill: url(#radial-gradient-9);
      }

      .cls-6 {
        fill: url(#radial-gradient-8);
      }

      .cls-7 {
        fill: url(#radial-gradient-3);
      }

      .cls-8 {
        fill: url(#radial-gradient-2);
      }

      .cls-9 {
        fill: url(#linear-gradient-5);
      }

      .cls-10 {
        fill: url(#linear-gradient-4);
      }

      .cls-11 {
        fill: url(#linear-gradient-2);
      }

      .cls-12 {
        fill: url(#radial-gradient);
      }

      .cls-13 {
        fill: url(#linear-gradient);
      }

      .cls-14 {
        isolation: isolate;
      }

      .cls-15 {
        fill: url(#linear-gradient-3);
      }

      .cls-15, .cls-16, .cls-17, .cls-18, .cls-19 {
        mix-blend-mode: overlay;
      }

      .cls-16 {
        fill: url(#linear-gradient-6);
      }

      .cls-20 {
        fill: url(#radial-gradient-16);
      }

      .cls-21 {
        fill: url(#radial-gradient-12);
      }

      .cls-22 {
        fill: url(#radial-gradient-14);
      }

      .cls-23 {
        fill: url(#radial-gradient-13);
      }

      .cls-24 {
        fill: url(#radial-gradient-10);
      }

      .cls-25 {
        fill: url(#radial-gradient-17);
      }

      .cls-26 {
        fill: url(#radial-gradient-19);
      }

      .cls-27 {
        fill: url(#radial-gradient-11);
      }

      .cls-28 {
        fill: url(#radial-gradient-18);
      }

      .cls-29 {
        fill: url(#radial-gradient-15);
      }

      .cls-30 {
        fill: url(#radial-gradient-22);
      }

      .cls-31 {
        fill: url(#radial-gradient-20);
      }

      .cls-32 {
        fill: url(#radial-gradient-21);
      }

      .cls-33 {
        fill: #291d33;
      }

      .cls-34 {
        opacity: .63;
      }

      .cls-18 {
        opacity: .37;
      }

      .cls-19 {
        opacity: .59;
      }
    </style>
    <linearGradient id="linear-gradient" x1="10.84" y1="45.03" x2="10.84" y2="1.38" gradientUnits="userSpaceOnUse">
      <stop offset=".16" stop-color="#6c3db8"/>
      <stop offset=".27" stop-color="#7750c7"/>
      <stop offset=".44" stop-color="#8c73e3"/>
      <stop offset=".52" stop-color="#7a66db"/>
      <stop offset=".75" stop-color="#4c48c9"/>
      <stop offset=".78" stop-color="#4e4ecb"/>
      <stop offset=".82" stop-color="#5560d0"/>
      <stop offset=".88" stop-color="#607dd9"/>
      <stop offset=".93" stop-color="#70a6e6"/>
      <stop offset=".99" stop-color="#85daf7"/>
      <stop offset="1" stop-color="#86dcf8"/>
    </linearGradient>
    <radialGradient id="radial-gradient" cx="1.92" cy="26.41" fx="1.92" fy="26.41" r="3.73" gradientUnits="userSpaceOnUse">
      <stop offset="0" stop-color="#fff" stop-opacity=".1"/>
      <stop offset="1" stop-color="#fff"/>
    </radialGradient>
    <radialGradient id="radial-gradient-2" cx="11.07" cy="21.31" fx="11.07" fy="21.31" r="6.35" xlink:href="#radial-gradient"/>
    <radialGradient id="radial-gradient-3" cx="-297.16" cy="862.28" fx="-297.16" fy="862.28" r="2.43" gradientTransform="translate(-556.65 -695.43) rotate(-57.14)" xlink:href="#radial-gradient"/>
    <radialGradient id="radial-gradient-4" cx="5.77" cy="17.9" fx="5.77" fy="17.9" r="1.67" xlink:href="#radial-gradient"/>
    <radialGradient id="radial-gradient-5" cx="4.04" cy="36.58" fx="4.04" fy="36.58" r="2.19" xlink:href="#radial-gradient"/>
    <radialGradient id="radial-gradient-6" cx="-305.53" cy="875.27" fx="-305.53" fy="875.27" r="2.43" gradientTransform="translate(-556.65 -695.43) rotate(-57.14)" xlink:href="#radial-gradient"/>
    <radialGradient id="radial-gradient-7" cx="-1285.15" cy="1259.35" fx="-1285.15" fy="1259.35" r=".94" gradientTransform="translate(-1600.44 -780.25) rotate(-108.92)" xlink:href="#radial-gradient"/>
    <radialGradient id="radial-gradient-8" cx="-1267.11" cy="1270.99" fx="-1267.11" fy="1270.99" r="1.1" gradientTransform="translate(-1600.44 -780.25) rotate(-108.92)" xlink:href="#radial-gradient"/>
    <radialGradient id="radial-gradient-9" cx="1.78" cy="263.78" fx="1.78" fy="263.78" r=".67" gradientTransform="translate(-97.44 -226.35) rotate(-24.07)" xlink:href="#radial-gradient"/>
    <radialGradient id="radial-gradient-10" cx="11.96" cy="30.43" fx="11.96" fy="30.43" r="3.46" xlink:href="#radial-gradient"/>
    <radialGradient id="radial-gradient-11" cx="-1290.34" cy="1257.12" fx="-1290.34" fy="1257.12" r="3.51" gradientTransform="translate(-1600.44 -780.25) rotate(-108.92)" xlink:href="#radial-gradient"/>
    <linearGradient id="linear-gradient-2" x1="2.53" y1="21.82" x2="2.07" y2="31.77" gradientUnits="userSpaceOnUse">
      <stop offset=".1" stop-color="#c48758"/>
      <stop offset=".34" stop-color="#d4b690"/>
      <stop offset=".38" stop-color="#d3b38c"/>
      <stop offset=".41" stop-color="#d0ab83"/>
      <stop offset=".44" stop-color="#cb9d72"/>
      <stop offset=".47" stop-color="#c58a5b"/>
      <stop offset=".47" stop-color="#c48758"/>
      <stop offset=".61" stop-color="#f7d4a8"/>
      <stop offset=".67" stop-color="#f5d1a4"/>
      <stop offset=".72" stop-color="#eec79b"/>
      <stop offset=".77" stop-color="#e4b78a"/>
      <stop offset=".81" stop-color="#d5a173"/>
      <stop offset=".85" stop-color="#c48758"/>
      <stop offset="1" stop-color="#d4b690"/>
    </linearGradient>
    <linearGradient id="linear-gradient-3" x1="7.92" y1="12.97" x2="9.88" y2="41.11" gradientUnits="userSpaceOnUse">
      <stop offset="0" stop-color="#fff"/>
      <stop offset="1" stop-color="#c7c7c7" stop-opacity="0"/>
    </linearGradient>
    <linearGradient id="linear-gradient-4" x1="-2330.93" y1="45.03" x2="-2330.93" y2="1.41" gradientTransform="translate(-2247) rotate(-180) scale(1 -1)" xlink:href="#linear-gradient"/>
    <radialGradient id="radial-gradient-12" cx="-2339.85" cy="26.41" fx="-2339.85" fy="26.41" r="3.73" gradientTransform="translate(-2247) rotate(-180) scale(1 -1)" xlink:href="#radial-gradient"/>
    <radialGradient id="radial-gradient-13" cx="-2330.7" cy="21.31" fx="-2330.7" fy="21.31" r="6.35" gradientTransform="translate(-2247) rotate(-180) scale(1 -1)" xlink:href="#radial-gradient"/>
    <radialGradient id="radial-gradient-14" cx="-1567.95" cy="-1104.69" fx="-1567.95" fy="-1104.69" r="2.43" gradientTransform="translate(-1690.35 -695.43) rotate(-122.86) scale(1 -1)" xlink:href="#radial-gradient"/>
    <radialGradient id="radial-gradient-15" cx="-2336" cy="17.9" fx="-2336" fy="17.9" r="1.67" gradientTransform="translate(-2247) rotate(-180) scale(1 -1)" xlink:href="#radial-gradient"/>
    <radialGradient id="radial-gradient-16" cx="-2337.73" cy="36.58" fx="-2337.73" fy="36.58" r="2.19" gradientTransform="translate(-2247) rotate(-180) scale(1 -1)" xlink:href="#radial-gradient"/>
    <radialGradient id="radial-gradient-17" cx="-1576.31" cy="-1091.71" fx="-1576.31" fy="-1091.71" r="2.43" gradientTransform="translate(-1690.35 -695.43) rotate(-122.86) scale(1 -1)" xlink:href="#radial-gradient"/>
    <radialGradient id="radial-gradient-18" cx="-525.74" cy="-955.87" fx="-525.74" fy="-955.87" r=".94" gradientTransform="translate(-646.56 -780.25) rotate(-71.08) scale(1 -1)" xlink:href="#radial-gradient"/>
    <radialGradient id="radial-gradient-19" cx="-507.7" cy="-944.23" fx="-507.7" fy="-944.23" r="1.1" gradientTransform="translate(-646.56 -780.25) rotate(-71.08) scale(1 -1)" xlink:href="#radial-gradient"/>
    <radialGradient id="radial-gradient-20" cx="-2136.33" cy="-691.4" fx="-2136.33" fy="-691.4" r=".67" gradientTransform="translate(-2149.57 -226.35) rotate(-155.93) scale(1 -1)" xlink:href="#radial-gradient"/>
    <radialGradient id="radial-gradient-21" cx="-2329.81" cy="30.43" fx="-2329.81" fy="30.43" r="3.46" gradientTransform="translate(-2247) rotate(-180) scale(1 -1)" xlink:href="#radial-gradient"/>
    <radialGradient id="radial-gradient-22" cx="-530.93" cy="-958.1" fx="-530.93" fy="-958.1" r="3.51" gradientTransform="translate(-646.56 -780.25) rotate(-71.08) scale(1 -1)" xlink:href="#radial-gradient"/>
    <linearGradient id="linear-gradient-5" x1="-2339.24" y1="21.82" x2="-2339.7" y2="31.77" gradientTransform="translate(-2247) rotate(-180) scale(1 -1)" xlink:href="#linear-gradient-2"/>
    <linearGradient id="linear-gradient-6" x1="-2333.85" y1="12.97" x2="-2331.89" y2="41.11" gradientTransform="translate(-2247) rotate(-180) scale(1 -1)" xlink:href="#linear-gradient-3"/>
  </defs>
  <g class="cls-14">
    <g id="Layer_2" data-name="Layer 2">
      <g id="Layer_1-2" data-name="Layer 1">
        <g>
          <g>
            <path class="cls-13" d="M5.51,40.06c-.06,0-.11-.03-.15-.07-.41-.53-.8-1.06-1.15-1.59-.31-.46-.61-.92-.88-1.37-.02-.03-.03-.06-.03-.1l-.72-1.21s-.05-.09-.07-.14c-.59-1.09-1.07-2.22-1.44-3.33-.22-.65-.4-1.32-.55-1.99l.16-.14-.18.04-.02-.11c-.33-1.68-.38-3.3-.14-4.82.04-.24.08-.47.13-.7.19-.87.45-1.63.79-2.31.07-.16.15-.32.24-.48.42-.79.95-1.54,1.59-2.21.28-.29.54-.54.81-.75,0,0,2.46-2.04,2.82-2.34,2.23-1.86,3.86-3.33,4.55-5.37.14-.39.24-.8.31-1.27.55-3.5-1.73-9.3-1.75-9.35-.03-.08,0-.18.07-.23.03-.02.07-.03.11-.03.05,0,.09.02.13.05,2.99,3.63,4.89,6.7,5.85,9.44,1.36,3.9.77,7.06-1.84,9.96,0,0-.07.08-.07.08-2.33,2.58-3.44,4.36-3.89,5.2-.16.29-.25.49-.3.6.1.24.2.48.32.72.18.38.38.76.6,1.14.35.61.73,1.21,1.13,1.78.64.93,1.38,1.89,2.2,2.85,1.62,1.93,3.05,3.31,3.06,3.32l4.26,4.4c.05.05.07.14.04.21-.03.07-.1.12-.17.12H5.51Z"/>
            <path class="cls-33" d="M10,.38s0,0,.01.02c3.06,3.71,4.88,6.76,5.78,9.34,1.51,4.33.42,7.31-1.8,9.78-.02.03-.04.05-.06.07-2.3,2.55-3.42,4.32-3.92,5.24-.21.37-.3.6-.34.69.11.27.22.54.35.81.18.39.39.77.61,1.16.35.6.73,1.21,1.14,1.79.71,1.02,1.48,2,2.21,2.87,1.64,1.96,3.08,3.34,3.08,3.34l4.26,4.4H5.51c-.41-.53-.79-1.06-1.14-1.58-.31-.46-.6-.92-.88-1.36v-.02l-.74-1.29s-.04-.08-.06-.12c-.61-1.14-1.08-2.24-1.44-3.32-.23-.67-.41-1.34-.54-1.97-.01-.07-.03-.13-.04-.2-.34-1.72-.37-3.32-.14-4.76.03-.24.08-.46.13-.69.18-.81.42-1.57.78-2.27.07-.16.15-.32.24-.48.42-.81.96-1.53,1.56-2.17.25-.26.51-.51.79-.74.11-.09.21-.18.3-.25.02-.01.03-.03.05-.04.91-.76,1.73-1.43,2.47-2.05,2.41-2.01,3.92-3.44,4.6-5.46.14-.41.24-.84.32-1.3.56-3.59-1.76-9.45-1.76-9.45M9.42,24.86c-.16-.62-.24-1.18-.28-1.6,0,.51.1,1.04.28,1.6M10,0c-.07,0-.14.02-.21.06-.15.1-.21.29-.14.46.02.06,2.28,5.81,1.74,9.26-.07.45-.17.86-.3,1.24-.68,2-2.29,3.45-4.49,5.29-.36.3-.74.61-1.14.94-.42.35-.87.71-1.33,1.1l.2.33-.24-.29c-.1.08-.2.17-.31.26-.27.22-.54.47-.82.77-.65.68-1.19,1.44-1.62,2.25-.09.16-.17.32-.25.5-.34.69-.61,1.46-.8,2.34-.05.23-.1.47-.13.72-.24,1.54-.19,3.18.14,4.89l.02.11.02.09c.15.7.34,1.37.56,2.02.37,1.12.86,2.26,1.46,3.37,0,.02.03.07.06.12l.72,1.24s.02.05.03.08c.33.53.61.97.89,1.38.36.53.75,1.07,1.16,1.59.07.09.18.15.3.15h15.79c.15,0,.29-.09.35-.23.06-.14.03-.3-.08-.41l-4.26-4.4s-1.45-1.39-3.06-3.32c-.82-.96-1.55-1.92-2.18-2.84-.4-.57-.77-1.17-1.12-1.77-.21-.36-.41-.74-.59-1.13-.1-.21-.19-.42-.28-.63.06-.13.14-.29.26-.51.45-.83,1.55-2.59,3.87-5.17.01-.01.04-.05.07-.08,2.66-2.95,3.25-6.18,1.87-10.15-.96-2.76-2.88-5.85-5.85-9.46,0,0-.03-.04-.04-.04C10.2.04,10.1,0,10,0h0Z"/>
          </g>
          <g class="cls-34">
            <g class="cls-17">
              <path class="cls-12" d="M4.79,29.64c-.02.06-.04.12-.09.18-.06.07-.15.13-.28.18h0c-.12.02-.25.03-.37.04h0s-.03,0-.04,0c-.25.02-.5.04-.74.05-.08,0-.15,0-.23.01-.1,0-.2,0-.3,0-.12,0-.24,0-.36,0-.15,0-.32,0-.48,0-.14,0-.28-.01-.42-.02s-.28-.01-.42-.03c-.07,0-.14-.01-.2-.02s-.12,0-.19-.02c-.4-2-.37-3.83-.01-5.45.18-.81.42-1.57.78-2.27.07-.16.15-.32.24-.48.19-.05.39-.11.63-.15.92-.18,1.37.3,1.52.75.06.16.07.48.01.84-.03.18-.08.36-.15.55-.06.14-.13.29-.21.42-.19.29-.47.53-.85.64-1.22.35-2.33.17-1.56,1.17.76,1,1.77,1.5,2.38,1.85.09.05.19.12.3.2.15.12.31.26.46.41.2.21.39.43.49.65.02.03.03.06.04.09,0,.02.02.04.02.06.05.12.06.25.04.36Z"/>
            </g>
            <g class="cls-17">
              <path class="cls-8" d="M14,19.51s-.04.05-.06.07c-.11-.16-.04-.37-.37-.44-.38-.09-.81.91-1.29,1.07s-.6.09-.99.13c-.39.04-.84.68-1.34.53-.5-.15-.82-.35-1.05-.67-.09-.13-.24-.32-.38-.53-.22-.31-.43-.64-.43-.77,0-.21.63-1.05,1.02-1.27.39-.23.42.01.8-.32.37-.34.44-.5.69-.92.15-.23.33-.36.52-.45.14-.08.29-.13.4-.19.28-.14.26-.89.63-1.17.09-.08.19-.13.29-.18.29-.14.57-.2.78-.3.2-.1.3-.19.5-.27.07-.02.15-.05.24-.07.02,0,.03,0,.05,0,.42-.07.59.36.99.3.4-.06.5-.45.6-.7.1-.24-.37-1.2-.27-1.61.09-.41-.16-1.21-.41-1.33-.25-.12-.86.22-1.05.43-.12.13-.4.42-.67.56-.15.08-.31.11-.41.03h0s-.04-.03-.06-.05c-.17-.12-.36-.21-.48-.34-.09-.1-.14-.21-.09-.37.01-.03.02-.06.03-.09.03-.08.06-.15.09-.21.1-.18.23-.29.45-.56.33-.39.38-1.42.58-1.65.2-.23.55-.3.87-.27.32.03.99.83,1.1.96.11.12.3.87.49.9,0,0,0,0,0,0h.01c1.51,4.33.42,7.31-1.8,9.78Z"/>
            </g>
            <g class="cls-17">
              <path class="cls-7" d="M5.46,20.47s-.71.96-.73,1.64-.36,1.37.26,1.8,1.12.46,1.81-.07.62-1.41.63-1.96.13-1.18-.4-1.42-.59-.71-1.57.01Z"/>
            </g>
            <g class="cls-17">
              <path class="cls-4" d="M6.84,16.59v.04c-.01.55.05,1.43-.63,1.96-.69.53-1.19.49-1.81.07,0,0-.02-.01-.03-.02.91-.76,1.73-1.43,2.47-2.05Z"/>
            </g>
            <g class="cls-17">
              <path class="cls-3" d="M5.05,36.3c0,.55.05,1.43-.63,1.96-.02.01-.03.03-.05.03-.31-.46-.6-.92-.88-1.36v-.02l-.74-1.29s-.04-.08-.06-.12c.19-.36.39-.62.39-.62.98-.72,1.05-.25,1.58,0,.53.24.41.87.4,1.41Z"/>
            </g>
            <g class="cls-17">
              <path class="cls-2" d="M11.83,34.54s-.71.96-.73,1.64-.36,1.37.26,1.8,1.12.46,1.81-.07.62-1.41.63-1.96.13-1.18-.4-1.42-.59-.71-1.57.01Z"/>
            </g>
            <g class="cls-17">
              <path class="cls-1" d="M6.89,26.94s.12.45.32.62.33.44.61.35.41-.23.41-.57-.28-.53-.45-.67-.33-.32-.53-.22-.36,0-.38.48Z"/>
            </g>
            <g class="cls-17">
              <path class="cls-6" d="M11.94,6.08s.14.52.38.71.39.51.71.41.48-.27.48-.66-.33-.62-.52-.77-.38-.38-.61-.25-.42.01-.44.56Z"/>
            </g>
            <g class="cls-17">
              <path class="cls-5" d="M11.81,13.25s-.31.11-.41.27-.29.26-.21.45.19.27.43.25.35-.23.44-.36.21-.25.12-.39-.03-.25-.36-.23Z"/>
            </g>
            <g class="cls-17">
              <path class="cls-24" d="M13.97,32.14c-.25.32-.63.53-1.13.68-1.04.32-1.52-.69-2.27-1.32-.75-.62-1.21-2.29-1.21-2.29.05-1.67.59-1.44,1.27-1.74.95,1.66,2.19,3.3,3.34,4.66Z"/>
            </g>
            <g class="cls-17">
              <path class="cls-27" d="M4.51,32.27s.45,1.67,1.21,2.29,1.24,1.64,2.27,1.31,1.53-.86,1.54-2.12-1.05-1.97-1.66-2.47-1.22-1.2-1.97-.81-1.34.04-1.39,1.8Z"/>
            </g>
          </g>
          <g>
            <path class="cls-11" d="M3.49,36.95s-.02,0-.03-.02l-.74-1.28-.14-2.44-1.4-1.17c-.21-.59-.21-.6-.29-.99l-.05-.24,1.85-4.13-1.96-2.53c.12-.58.18-.87.45-1.38l1.83-1.35.18-1.75c.23-.26.33-.33.41-.4l-.03,2.51-2.41,1.8,2.3,2.88-2.11,4.8,2.07,1.58.1,4.07s0,.03-.02.03c0,0,0,0,0,0Z"/>
            <path class="cls-33" d="M3.65,19.27l-.11,2.51-2.39,1.77,2.29,2.93-2.12,4.77,2.08,1.62.09,4.05-.74-1.28-.14-2.43-1.41-1.2c-.23-.67-.19-.57-.33-1.21l1.85-4.11-1.97-2.56c.12-.53.18-.82.46-1.35l1.82-1.34.19-1.78c.25-.26.34-.33.43-.4M3.65,19.21s-.03,0-.04.01l-.03.02c-.08.06-.18.15-.41.38,0,.01-.02.02-.02.04l-.19,1.75-1.8,1.32s-.01.01-.02.02c-.27.51-.34.81-.45,1.31v.06s-.01.04,0,.05l1.94,2.53-1.84,4.07s0,.03,0,.04l.05.24c.08.38.09.4.28.97,0,.01.01.02.02.03l1.39,1.18.14,2.4s0,.02,0,.03l.74,1.28s.03.03.06.03c0,0,.01,0,.02,0,.03,0,.05-.03.05-.06l-.09-4.05s0-.04-.02-.05l-2.04-1.59,2.1-4.72s0-.05,0-.07l-2.25-2.88,2.34-1.73s.03-.03.03-.05l.11-2.51s-.01-.05-.04-.06c0,0-.02,0-.03,0h0ZM3.65,19.33h0,0Z"/>
          </g>
          <path class="cls-33" d="M10.3,26.83c-1.08-1.42-1.34-3.27-1.25-5,.03,1.67.41,3.46,1.52,4.74.2.18-.11.47-.27.26h0Z"/>
          <path class="cls-19" d="M14,19.51c-3.27,3.62-4.21,5.7-4.33,6,.11.27.22.54.35.81-1.02-1.67-1.16-3.58-.74-4.76,1.32-3.66,5.49-3.21,6.07-9.83C15.72,7.46,10.27.72,10.01.4c8.19,9.93,7.52,15.18,3.98,19.12Z"/>
          <path class="cls-19" d="M3.05,27.37c.02,5.19,3.3,9.82,5.68,12.5h-3.22c-.78-1-1.44-1.99-2.02-2.94v-.02l-.74-1.29c-.63-1.18-1.13-2.32-1.49-3.43-.23-.67-.41-1.34-.54-1.97-.44-2.08-.42-3.98-.06-5.65.18-.81.42-1.57.78-2.27.46-1,1.08-1.88,1.79-2.64.25-.26.51-.51.79-.74.11-.09.21-.18.3-.25,3.91-3.26,6.23-4.89,7.13-7.55-.22,1.1-.62,2.29-1.26,3.55-2.95,5.74-7.16,4.54-7.14,12.69Z"/>
          <path class="cls-15" d="M14,19.51s-.04.05-.06.07c-2.3,2.55-3.42,4.32-3.92,5.24.17-.71.63-1.82,1.78-3.47,2.35-3.39,4.03-2.44,4.17-8,.15-5.56-5.34-11.91-5.34-11.91,0,0,1.77,3.79,1.77,7.06s-.99,5.01-4.59,8.09S.36,22.38.98,28.57c.51,5.05,3.95,9.74,5.2,11.3h-.67c-.41-.53-.79-1.06-1.14-1.58-.31-.46-.6-.92-.88-1.36v-.02l-.74-1.29s-.04-.08-.06-.12c-.61-1.14-1.08-2.24-1.44-3.32-.23-.67-.41-1.34-.54-1.97-.01-.07-.03-.13-.04-.2-.4-2-.37-3.83-.01-5.45.18-.81.42-1.57.78-2.27.07-.16.15-.32.24-.48.42-.81.96-1.53,1.56-2.17.25-.26.51-.51.79-.74.11-.09.21-.18.3-.25.02-.01.03-.03.05-.04.91-.76,1.73-1.43,2.47-2.05,2.41-2.01,3.92-3.44,4.6-5.46.14-.41.24-.84.32-1.3.56-3.59-1.76-9.45-1.76-9.45,0,0,0,0,.01.02,3.06,3.71,4.88,6.76,5.78,9.34,1.51,4.33.42,7.31-1.8,9.78Z"/>
          <path class="cls-18" d="M21.3,39.87H5.51c-.41-.53-.79-1.06-1.14-1.58-.31-.46-.6-.92-.88-1.36v-.02l-.74-1.29s-.04-.08-.06-.12c-.61-1.14-1.08-2.24-1.44-3.32-.23-.67-.41-1.34-.54-1.97-.01-.07-.03-.13-.04-.2-.34-1.72-.37-3.32-.14-4.76.79,2.04,2.43,4.19,5.87,4.59,1.96.22,3.77-.06,5.36-.59.71,1.02,1.48,2,2.21,2.87,1.64,1.96,3.08,3.34,3.08,3.34l4.26,4.4Z"/>
        </g>
        <g>
          <g>
            <path class="cls-10" d="M73.46,40.06c-.08,0-.14-.05-.17-.12-.03-.07-.01-.15.04-.21l4.26-4.4s1.45-1.4,3.07-3.33c.82-.97,1.56-1.93,2.2-2.85.4-.58.78-1.18,1.13-1.78.22-.38.42-.76.6-1.14.12-.24.22-.48.32-.72-.06-.14-.15-.33-.3-.6-.45-.83-1.56-2.61-3.9-5.2,0,0-.07-.08-.07-.08-2.61-2.9-3.19-6.06-1.83-9.96.96-2.74,2.86-5.81,5.81-9.4.04-.04.1-.06.16-.06.03,0,.07,0,.09.03.07.05.12.12.08.21-.02.06-2.3,5.85-1.75,9.35.07.46.17.88.31,1.27.69,2.04,2.32,3.52,4.55,5.37.37.31,2.82,2.34,2.82,2.34.27.21.53.46.81.75.64.67,1.17,1.41,1.59,2.21.08.16.17.32.24.49.34.68.6,1.44.79,2.31.05.23.09.46.13.7.24,1.52.19,3.14-.14,4.82l-.04.2c-.15.69-.33,1.36-.55,2-.37,1.11-.86,2.24-1.45,3.34-.01.03-.04.07-.06.12l-.74,1.29c-.28.47-.57.93-.89,1.39-.35.52-.74,1.05-1.15,1.58-.04.05-.09.07-.15.07h-15.79Z"/>
            <path class="cls-33" d="M84.77.38h0M84.77.38s-2.32,5.86-1.76,9.45c.07.47.18.9.32,1.3.69,2.02,2.2,3.45,4.6,5.46.74.62,1.56,1.29,2.47,2.05.02.01.03.03.05.04.09.07.19.16.3.25.28.23.54.48.79.74.6.63,1.14,1.36,1.56,2.17.09.15.16.31.24.48.35.7.6,1.46.78,2.27.05.23.09.45.13.69.23,1.44.2,3.04-.14,4.76-.01.07-.03.13-.04.2-.14.63-.32,1.3-.54,1.97-.36,1.08-.83,2.18-1.44,3.32-.02.04-.04.08-.06.12l-.74,1.29v.02c-.27.45-.57.9-.88,1.36-.35.52-.73,1.05-1.14,1.58h-15.79l4.26-4.4s1.43-1.38,3.08-3.34c.73-.86,1.5-1.84,2.21-2.87.41-.59.79-1.19,1.14-1.79.22-.39.42-.77.61-1.16.13-.27.24-.54.35-.81-.04-.09-.14-.32-.34-.69-.5-.92-1.63-2.69-3.92-5.24-.02-.02-.04-.05-.06-.07-2.22-2.47-3.31-5.45-1.8-9.78.9-2.58,2.72-5.63,5.78-9.34,0-.01.01-.02.01-.02M85.35,24.86c.18-.57.28-1.09.28-1.6-.03.42-.12.99-.28,1.6M84.77,0s0,0,0,0c0,0,0,0,0,0h0c-.08,0-.15.03-.21.07,0,0,0,0,0,0,0,0,0,0,0,0h0s-.03.03-.05.04c0,0,0,0,0,0,0,0,0,0,0,0,0,0,0,0,0,0,0,0,0,0,0,0,0,0,0,0,0,0,0,0,0,0,0,0h0s-.03.03-.04.05c0,0-.01.02-.02.03-2.95,3.58-4.86,6.67-5.83,9.43-1.38,3.97-.79,7.19,1.88,10.15.02.03.05.06.08.09,2.31,2.56,3.41,4.33,3.86,5.15.13.23.21.4.26.52-.09.21-.18.42-.28.63-.19.39-.39.77-.59,1.13-.35.6-.72,1.2-1.12,1.77-.63.92-1.37,1.87-2.18,2.84-1.61,1.92-3.03,3.29-3.05,3.31l-4.27,4.41c-.11.11-.14.27-.08.41.06.14.2.23.35.23h15.79c.12,0,.23-.05.3-.15.41-.52.8-1.06,1.16-1.6.28-.41.56-.85.89-1.38.02-.03.03-.05.04-.08l.71-1.23c.03-.05.06-.1.08-.15.59-1.09,1.08-2.23,1.45-3.35.22-.64.41-1.32.55-2.01l.02-.1.02-.11c.34-1.7.39-3.34.14-4.89-.04-.24-.08-.48-.13-.71-.19-.88-.46-1.65-.81-2.36-.07-.16-.15-.33-.24-.49-.42-.81-.97-1.56-1.62-2.24-.28-.3-.55-.55-.83-.77-.1-.09-.21-.17-.3-.25l-.06-.05c-.45-.38-.89-.74-1.31-1.09-.4-.33-.78-.64-1.14-.95-2.2-1.84-3.81-3.29-4.49-5.29-.13-.38-.23-.79-.3-1.24-.52-3.32,1.54-8.75,1.73-9.22.03-.05.04-.11.04-.17C85.15.17,84.98,0,84.77,0h0s0,0,0,0h0ZM84.77.76h0,0Z"/>
          </g>
          <g class="cls-34">
            <g class="cls-17">
              <path class="cls-21" d="M89.98,29.64c.02.06.04.12.09.18.06.07.15.13.28.18h0c.12.02.25.03.37.04h0s.03,0,.04,0c.25.02.5.04.74.05.08,0,.15,0,.23.01.1,0,.2,0,.3,0,.12,0,.24,0,.36,0,.15,0,.32,0,.48,0,.14,0,.28-.01.42-.02s.28-.01.42-.03c.07,0,.14-.01.2-.02s.12,0,.19-.02c.4-2,.37-3.83.01-5.45-.18-.81-.42-1.57-.78-2.27-.07-.16-.15-.32-.24-.48-.19-.05-.39-.11-.63-.15-.92-.18-1.37.3-1.52.75-.06.16-.07.48-.01.84.03.18.08.36.15.55.06.14.13.29.21.42.19.29.47.53.85.64,1.22.35,2.33.17,1.56,1.17-.76,1-1.77,1.5-2.38,1.85-.09.05-.19.12-.3.2-.15.12-.31.26-.46.41-.2.21-.39.43-.49.65-.02.03-.03.06-.04.09,0,.02-.02.04-.02.06-.05.12-.06.25-.04.36Z"/>
            </g>
            <g class="cls-17">
              <path class="cls-23" d="M80.77,19.51s.04.05.06.07c.11-.16.04-.37.37-.44.38-.09.81.91,1.29,1.07s.6.09.99.13c.39.04.84.68,1.34.53.5-.15.82-.35,1.05-.67.09-.13.24-.32.38-.53.22-.31.43-.64.43-.77,0-.21-.63-1.05-1.02-1.27-.39-.23-.42.01-.8-.32-.37-.34-.44-.5-.69-.92-.15-.23-.33-.36-.52-.45-.14-.08-.29-.13-.4-.19-.28-.14-.26-.89-.63-1.17-.09-.08-.19-.13-.29-.18-.29-.14-.57-.2-.78-.3-.2-.1-.3-.19-.5-.27-.07-.02-.15-.05-.24-.07-.02,0-.03,0-.05,0-.42-.07-.59.36-.99.3-.4-.06-.5-.45-.6-.7-.1-.24.37-1.2.27-1.61-.09-.41.16-1.21.41-1.33.25-.12.86.22,1.05.43.12.13.4.42.67.56.15.08.31.11.41.03h0s.04-.03.06-.05c.17-.12.36-.21.48-.34.09-.1.14-.21.09-.37-.01-.03-.02-.06-.03-.09-.03-.08-.06-.15-.09-.21-.1-.18-.23-.29-.45-.56-.33-.39-.38-1.42-.58-1.65-.2-.23-.55-.3-.87-.27-.32.03-.99.83-1.1.96-.11.12-.3.87-.49.9,0,0,0,0,0,0h-.01c-1.51,4.33-.42,7.31,1.8,9.78Z"/>
            </g>
            <g class="cls-17">
              <path class="cls-22" d="M89.31,20.47s.71.96.73,1.64.36,1.37-.26,1.8-1.12.46-1.81-.07-.62-1.41-.63-1.96-.13-1.18.4-1.42.59-.71,1.57.01Z"/>
            </g>
            <g class="cls-17">
              <path class="cls-29" d="M87.93,16.59v.04c.01.55-.05,1.43.63,1.96.69.53,1.19.49,1.81.07,0,0,.02-.01.03-.02-.91-.76-1.73-1.43-2.47-2.05Z"/>
            </g>
            <g class="cls-17">
              <path class="cls-20" d="M89.72,36.3c0,.55-.05,1.43.63,1.96.02.01.03.03.05.03.31-.46.6-.92.88-1.36v-.02l.74-1.29s.04-.08.06-.12c-.19-.36-.39-.62-.39-.62-.98-.72-1.05-.25-1.58,0-.53.24-.41.87-.4,1.41Z"/>
            </g>
            <g class="cls-17">
              <path class="cls-25" d="M82.94,34.54s.71.96.73,1.64.36,1.37-.26,1.8-1.12.46-1.81-.07-.62-1.41-.63-1.96-.13-1.18.4-1.42.59-.71,1.57.01Z"/>
            </g>
            <g class="cls-17">
              <path class="cls-28" d="M87.88,26.94s-.12.45-.32.62-.33.44-.61.35-.41-.23-.41-.57.28-.53.45-.67.33-.32.53-.22.36,0,.38.48Z"/>
            </g>
            <g class="cls-17">
              <path class="cls-26" d="M82.83,6.08s-.14.52-.38.71-.39.51-.71.41-.48-.27-.48-.66.33-.62.52-.77.38-.38.61-.25.42.01.44.56Z"/>
            </g>
            <g class="cls-17">
              <path class="cls-31" d="M82.95,13.25s.31.11.41.27.29.26.21.45-.19.27-.43.25-.35-.23-.44-.36-.21-.25-.12-.39.03-.25.36-.23Z"/>
            </g>
            <g class="cls-17">
              <path class="cls-32" d="M80.8,32.14c.25.32.63.53,1.13.68,1.04.32,1.52-.69,2.27-1.32.75-.62,1.21-2.29,1.21-2.29-.05-1.67-.59-1.44-1.27-1.74-.95,1.66-2.19,3.3-3.34,4.66Z"/>
            </g>
            <g class="cls-17">
              <path class="cls-30" d="M90.26,32.27s-.45,1.67-1.21,2.29-1.24,1.64-2.27,1.31-1.53-.86-1.54-2.12,1.05-1.97,1.66-2.47,1.22-1.2,1.97-.81,1.34.04,1.39,1.8Z"/>
            </g>
          </g>
          <g>
            <path class="cls-9" d="M91.27,36.95s-.02-.02-.02-.03l.09-4.05,2.09-1.64-2.13-4.73,2.3-2.96-2.39-1.73-.12-2.53c.16.06.26.14.48.38l.2,1.8,1.81,1.32c.28.52.34.81.45,1.3l-1.96,2.66,1.86,4.07-.05.27c-.08.38-.09.4-.28.96l-1.42,1.21-.13,2.41-.74,1.3s-.02.02-.03.02c0,0,0,0,0,0Z"/>
            <path class="cls-33" d="M91.11,19.27c.09.07.18.14.43.4l.19,1.78,1.82,1.34c.28.53.34.81.46,1.35l-1.97,2.56,1.85,4.11c-.14.63-.11.54-.33,1.21l-1.41,1.2-.14,2.43-.74,1.28.09-4.05,2.08-1.62-2.12-4.77,2.29-2.93-2.39-1.77-.11-2.51M91.11,19.21s-.02,0-.03,0c-.02.01-.04.03-.04.06l.11,2.51s.01.04.03.05l2.34,1.73-2.25,2.88s-.02.04,0,.07l2.1,4.72-2.04,1.59s-.02.03-.02.05l-.09,4.05s.02.06.05.06c0,0,.01,0,.02,0,.02,0,.04-.01.06-.03l.74-1.28s0-.02,0-.03l.14-2.4,1.39-1.18s.02-.02.02-.03c.2-.57.2-.59.28-.97l.05-.24s0-.03,0-.04l-1.84-4.07,1.94-2.53s.02-.03.01-.05v-.06c-.12-.49-.19-.79-.46-1.31,0,0-.01-.02-.02-.02l-1.8-1.32-.19-1.75s0-.03-.02-.04c-.22-.24-.32-.32-.41-.38l-.03-.02s-.03-.01-.04-.01h0Z"/>
          </g>
          <path class="cls-33" d="M84.2,26.57c1.11-1.28,1.49-3.07,1.52-4.74.09,1.73-.17,3.58-1.25,5-.17.21-.47-.08-.27-.26h0Z"/>
          <path class="cls-19" d="M80.77,19.51c3.27,3.62,4.21,5.7,4.33,6-.11.27-.22.54-.35.81,1.02-1.67,1.16-3.58.74-4.76-1.32-3.66-5.49-3.21-6.07-9.83-.37-4.28,5.08-11.01,5.33-11.34-8.19,9.93-7.52,15.18-3.98,19.12Z"/>
          <path class="cls-19" d="M91.72,27.37c-.02,5.19-3.3,9.82-5.68,12.5h3.22c.78-1,1.44-1.99,2.02-2.94v-.02l.74-1.29c.63-1.18,1.13-2.32,1.49-3.43.23-.67.41-1.34.54-1.97.44-2.08.42-3.98.06-5.65-.18-.81-.42-1.57-.78-2.27-.46-1-1.08-1.88-1.79-2.64-.25-.26-.51-.51-.79-.74-.11-.09-.21-.18-.3-.25-3.91-3.26-6.23-4.89-7.13-7.55.22,1.1.62,2.29,1.26,3.55,2.95,5.74,7.16,4.54,7.14,12.69Z"/>
          <path class="cls-16" d="M80.77,19.51s.04.05.06.07c2.3,2.55,3.42,4.32,3.92,5.24-.17-.71-.63-1.82-1.78-3.47-2.35-3.39-4.03-2.44-4.17-8-.15-5.56,5.34-11.91,5.34-11.91,0,0-1.77,3.79-1.77,7.06s.99,5.01,4.59,8.09c3.61,3.08,7.44,5.78,6.82,11.98-.51,5.05-3.95,9.74-5.2,11.3h.67c.41-.53.79-1.06,1.14-1.58.31-.46.6-.92.88-1.36v-.02l.74-1.29s.04-.08.06-.12c.61-1.14,1.08-2.24,1.44-3.32.23-.67.41-1.34.54-1.97.01-.07.03-.13.04-.2.4-2,.37-3.83.01-5.45-.18-.81-.42-1.57-.78-2.27-.07-.16-.15-.32-.24-.48-.42-.81-.96-1.53-1.56-2.17-.25-.26-.51-.51-.79-.74-.11-.09-.21-.18-.3-.25-.02-.01-.03-.03-.05-.04-.91-.76-1.73-1.43-2.47-2.05-2.41-2.01-3.92-3.44-4.6-5.46-.14-.41-.24-.84-.32-1.3-.56-3.59,1.76-9.45,1.76-9.45,0,0,0,0-.01.02-3.06,3.71-4.88,6.76-5.78,9.34-1.51,4.33-.42,7.31,1.8,9.78Z"/>
          <path class="cls-18" d="M73.46,39.87h15.79c.41-.53.79-1.06,1.14-1.58.31-.46.6-.92.88-1.36v-.02l.74-1.29s.04-.08.06-.12c.61-1.14,1.08-2.24,1.44-3.32.23-.67.41-1.34.54-1.97.01-.07.03-.13.04-.2.34-1.72.37-3.32.14-4.76-.79,2.04-2.43,4.19-5.87,4.59-1.96.22-3.77-.06-5.36-.59-.71,1.02-1.48,2-2.21,2.87-1.64,1.96-3.08,3.34-3.08,3.34l-4.26,4.4Z"/>
        </g>
      </g>
    </g>
  </g>
</svg>